<?xml version="1.0" encoding="utf-8"?>
<!-- Generator: Adobe Illustrator 26.3.1, SVG Export Plug-In . SVG Version: 6.00 Build 0)  -->
<svg version="1.1" id="Calque_1" xmlns="http://www.w3.org/2000/svg" xmlns:xlink="http://www.w3.org/1999/xlink" x="0px" y="0px"
	 viewBox="0 0 708.77 277.14" style="enable-background:new 0 0 708.77 277.14;" xml:space="preserve">
<style type="text/css">
	.st0{fill:#FFC906;}
	.st1{fill:#006944;}
	.st2{fill:#C93456;enable-background:new    ;}
</style>
<g>
	<circle class="st0" cx="159.5" cy="157.14" r="77.5"/>
	<g>
		<g>
			<path class="st1" d="M279.93,133.69c1.49,1.9,4.08,2.99,6.72,2.99c5.57,0,7.35-3.79,8.39-6.55c0.46-1.21,1.44-3.79,4.59-3.79
				c2.36,0,4.65,1.84,4.65,4.6c0,3.56-2.12,7.41-5,9.88c-2.76,2.47-6.03,4.02-12.29,4.02c-6.89,0-11.26-1.84-14.71-5.63
				c-4.54-4.94-5.4-10.91-5.4-15.45c0-13.04,7.76-21.43,19.82-21.43c13.21,0,17.58,8.62,17.58,12.98c0,2.13-1.78,4.65-4.6,4.65
				c-2.99,0-3.96-2.07-4.77-3.91c-1.49-3.22-4.08-5.4-8.16-5.4c-9.25,0-9.25,10.86-9.25,13.33
				C277.52,129.38,278.61,131.97,279.93,133.69z"/>
			<path class="st1" d="M325.44,113.7c11.43,0,16.26,8.04,16.26,15.45s-4.83,15.68-16.26,15.68c-9.77,0-16.2-6.26-16.2-15.74
				C309.24,122.32,313.61,113.7,325.44,113.7z M325.5,137.71c3.39,0,6.49-2.53,6.49-8.39c0-4.37-1.89-8.5-6.49-8.5
				c-4.54,0-6.55,4.14-6.55,8.27C318.95,132.89,320.33,137.71,325.5,137.71z"/>
			<path class="st1" d="M376.63,136.79c0,3.5,0,5.28-1.26,6.55c-0.63,0.63-1.84,1.49-3.5,1.49c-1.32,0-2.64-0.52-3.62-1.49
				c-1.26-1.26-1.32-3.1-1.32-6.55v-8.44c0-2.93,0.06-7.18-4.42-7.18c-1.84,0-4.14,0.98-5.06,3.91c-0.34,1.09-0.4,3.91-0.4,5.17
				v6.55c0,2.7,0.46,8.04-4.88,8.04c-4.77,0-4.83-4.14-4.83-8.04v-15.63c0-3.27,0-4.88,1.15-6.09c0.8-0.75,1.38-1.38,3.39-1.38
				c0.63,0,4.54,0.17,4.42,5.28c2.64-3.45,5.86-5.28,10.11-5.28c2.87,0,7.3,0.75,9.25,5.46c0.98,2.3,0.98,5.86,0.98,7.35v10.28
				H376.63z"/>
			<path class="st1" d="M394.91,136.79c0,3.5,0,5.28-1.26,6.55c-0.69,0.69-1.89,1.49-3.56,1.49c-1.26,0-2.58-0.52-3.56-1.49
				c-1.26-1.26-1.32-3.1-1.32-6.55v-15.4l-1.67-0.06c-3.22-0.11-4.14-1.78-4.14-3.45c0-0.92,0.34-1.9,1.03-2.58
				c0.98-0.98,2.41-0.92,3.5-0.92h1.26v-1.84c0-5,0.92-10.23,9.88-10.23c7.64,0,9.13,1.61,9.13,3.91c0,1.9-1.38,3.16-2.81,3.16
				c-0.57,0-3.04-0.4-3.5-0.4c-2.99,0-2.99,2.41-2.99,3.96v1.44c2.81,0,3.62,0,4.6,0.46c0.86,0.4,1.78,1.55,1.78,2.99
				c0,1.32-0.8,2.64-1.78,3.05c-1.03,0.52-1.67,0.52-4.6,0.52v15.39H394.91z"/>
			<path class="st1" d="M413.53,131.91c0.11,5.46,4.42,6.61,6.32,6.61c3.16,0,5.57-1.9,6.61-2.64c1.21-0.86,2.35-1.84,3.91-1.84
				c2.12,0,3.73,1.78,3.73,3.45c0,3.39-4.83,7.35-13.84,7.35c-12.52,0-16.6-7.87-16.6-15.51c0-6.43,3.39-15.63,15.74-15.63
				c11.32,0,14.76,8.5,14.76,12.64c0,1.21-0.4,3.96-3.16,5.06c-1.15,0.46-3.45,0.52-4.71,0.52h-12.76V131.91z M424.79,126.74
				c0.11-3.85-2.3-6.55-5.75-6.55c-4.83,0-5.34,5.11-5.51,6.55H424.79z M415.19,110.42c-0.75,0-1.15,0-1.15-0.46
				c0-0.4,0.29-0.92,0.8-1.78l1.26-2.01c2.18-3.62,2.64-3.62,6.32-3.62h2.36l1.26,0.06c0.46,0,1.38,0,1.38,0.34
				s-0.29,0.69-1.21,1.49c-0.63,0.57-4.54,4.02-6.15,5.23c-0.86,0.75-2.41,0.75-3.56,0.75C416.5,110.42,415.19,110.42,415.19,110.42
				z"/>
			<path class="st1" d="M449.78,136.79c0,3.5,0,5.28-1.26,6.55c-0.69,0.69-1.9,1.49-3.56,1.49c-1.32,0-2.64-0.52-3.56-1.49
				c-1.32-1.26-1.32-3.1-1.32-6.55v-15.63c0-3.27,0-4.88,1.21-6.09c0.75-0.75,1.61-1.38,3.33-1.38c0.75,0,4.48,0,4.48,5.23
				c2.12-4.02,4.19-5.23,7.01-5.23c1.44,0,7.76,0.98,7.76,5.17c0,2.47-2.13,4.02-3.79,4.02c-0.8,0-1.72-0.29-2.07-0.4
				c-0.46-0.17-2.35-0.86-3.45-0.86c-0.52,0-2.93,0.34-3.96,3.79c-0.75,2.41-0.8,6.55-0.8,9.13v2.25H449.78z"/>
			<path class="st1" d="M475.58,131.91c0.11,5.46,4.42,6.61,6.32,6.61c3.16,0,5.57-1.9,6.61-2.64c1.21-0.86,2.35-1.84,3.91-1.84
				c2.12,0,3.73,1.78,3.73,3.45c0,3.39-4.83,7.35-13.84,7.35c-12.52,0-16.6-7.87-16.6-15.51c0-6.43,3.39-15.63,15.74-15.63
				c11.32,0,14.76,8.5,14.76,12.64c0,1.21-0.4,3.96-3.16,5.06c-1.15,0.46-3.45,0.52-4.71,0.52h-12.76V131.91z M486.84,126.74
				c0.11-3.85-2.3-6.55-5.75-6.55c-4.83,0-5.34,5.11-5.51,6.55H486.84z"/>
			<path class="st1" d="M531.48,136.79c0,3.5,0,5.28-1.26,6.55c-0.63,0.63-1.84,1.49-3.5,1.49c-1.32,0-2.64-0.52-3.62-1.49
				c-1.26-1.26-1.32-3.1-1.32-6.55v-8.44c0-2.93,0.06-7.18-4.42-7.18c-1.84,0-4.14,0.98-5.06,3.91c-0.34,1.09-0.4,3.91-0.4,5.17
				v6.55c0,2.7,0.46,8.04-4.88,8.04c-4.77,0-4.83-4.14-4.83-8.04v-15.63c0-3.27,0-4.88,1.15-6.09c0.8-0.75,1.38-1.38,3.39-1.38
				c0.63,0,4.54,0.17,4.42,5.28c2.64-3.45,5.86-5.28,10.11-5.28c2.87,0,7.3,0.75,9.25,5.46c0.98,2.3,0.98,5.86,0.98,7.35v10.28
				H531.48z"/>
			<path class="st1" d="M553.67,137.71c2.93,0,4.54-1.72,5.74-3.22c1.9-2.35,2.7-3.33,4.71-3.33c2.07,0,3.68,1.44,3.68,3.79
				c0,2.47-2.64,9.88-14.48,9.88c-3.96,0-8.1-0.86-11.14-3.56c-3.91-3.51-4.71-8.62-4.71-11.95c0-3.62,0.92-8.21,4.48-11.72
				c2.13-2.07,5.06-3.91,11.55-3.91c4.94,0,7.58,1.03,9.82,2.58c1.49,1.03,4.14,3.45,4.14,6.38c0,2.35-1.89,4.14-4.37,4.14
				c-1.89,0-2.7-1.03-4.36-3.39c-0.69-0.98-2.7-2.58-5.23-2.58c-3.45,0-6.32,2.7-6.32,8.73
				C547.18,130.7,547.23,137.71,553.67,137.71z"/>
			<path class="st1" d="M582.74,131.91c0.11,5.46,4.42,6.61,6.32,6.61c3.16,0,5.57-1.9,6.61-2.64c1.21-0.86,2.35-1.84,3.91-1.84
				c2.12,0,3.73,1.78,3.73,3.45c0,3.39-4.83,7.35-13.84,7.35c-12.52,0-16.6-7.87-16.6-15.51c0-6.43,3.39-15.63,15.74-15.63
				c11.32,0,14.76,8.5,14.76,12.64c0,1.21-0.4,3.96-3.16,5.06c-1.15,0.46-3.45,0.52-4.71,0.52h-12.76V131.91z M594,126.74
				c0.11-3.85-2.3-6.55-5.75-6.55c-4.83,0-5.34,5.11-5.51,6.55H594z"/>
			<path class="st1" d="M278.96,191.75c0,3.79,0,5.69-1.38,7.07c-0.75,0.8-2.07,1.67-3.85,1.67c-1.44,0-2.87-0.57-3.91-1.61
				c-1.38-1.38-1.38-3.39-1.38-7.12v-25.05c0-3.79,0-5.69,1.38-7.07c0.75-0.75,2.07-1.67,3.85-1.67c1.44,0,2.87,0.57,3.91,1.61
				c1.38,1.44,1.38,3.39,1.38,7.12V191.75z"/>
			<path class="st1" d="M316.19,192.44c0,3.5,0,5.28-1.26,6.55c-0.63,0.63-1.84,1.49-3.5,1.49c-1.32,0-2.64-0.52-3.62-1.49
				c-1.26-1.26-1.32-3.1-1.32-6.55V184c0-2.93,0.06-7.18-4.42-7.18c-1.84,0-4.14,0.98-5.06,3.91c-0.34,1.09-0.4,3.91-0.4,5.17v6.55
				c0,2.7,0.46,8.04-4.88,8.04c-4.77,0-4.83-4.14-4.83-8.04v-15.63c0-3.27,0-4.88,1.15-6.09c0.8-0.75,1.38-1.38,3.39-1.38
				c0.63,0,4.54,0.17,4.42,5.28c2.64-3.45,5.86-5.28,10.11-5.28c2.87,0,7.3,0.75,9.25,5.46c0.98,2.3,0.98,5.86,0.98,7.35v10.28
				H316.19z"/>
			<path class="st1" d="M334.4,188.59c0,2.82,0,4.6,2.3,4.6c1.78,0,3.16-0.57,4.14-0.57c1.67,0,2.99,1.44,2.99,3.16
				c0,2.13-1.49,3.16-3.1,3.73c-2.47,0.86-4.94,0.98-6.61,0.98c-9.25,0-9.42-5.34-9.42-11.49v-12.01c-1.44-0.06-2.76-0.17-3.45-0.86
				c-0.52-0.52-1.15-1.38-1.15-2.59c0-1.44,0.86-2.64,1.78-3.04c0.98-0.52,2.07-0.57,2.82-0.52v-4.25c0-2.93,0.06-4.08,0.69-5.34
				s2.3-2.41,4.19-2.41c1.95,0,3.56,1.15,4.19,2.41c0.52,1.03,0.63,2.01,0.63,4.31v5.34c3.04,0,3.79,0,4.83,0.46
				c0.8,0.34,1.72,1.55,1.72,2.99c0,1.32-0.75,2.64-1.72,3.05c-1.03,0.52-1.44,0.52-4.83,0.52V188.59z"/>
			<path class="st1" d="M354.23,187.56c0.11,5.46,4.42,6.61,6.32,6.61c3.16,0,5.57-1.9,6.61-2.64c1.21-0.86,2.35-1.84,3.91-1.84
				c2.12,0,3.73,1.78,3.73,3.45c0,3.39-4.83,7.35-13.84,7.35c-12.52,0-16.6-7.87-16.6-15.51c0-6.43,3.39-15.63,15.74-15.63
				c11.32,0,14.76,8.5,14.76,12.64c0,1.21-0.4,3.96-3.16,5.06c-1.15,0.46-3.45,0.52-4.71,0.52h-12.76V187.56z M365.49,182.39
				c0.11-3.85-2.3-6.55-5.75-6.55c-4.83,0-5.34,5.11-5.51,6.55H365.49z"/>
			<path class="st1" d="M390.48,192.44c0,3.5,0,5.28-1.26,6.55c-0.69,0.69-1.9,1.49-3.56,1.49c-1.32,0-2.64-0.52-3.56-1.49
				c-1.32-1.26-1.32-3.1-1.32-6.55v-15.63c0-3.27,0-4.88,1.21-6.09c0.75-0.75,1.61-1.38,3.33-1.38c0.75,0,4.48,0,4.48,5.23
				c2.12-4.02,4.19-5.23,7.01-5.23c1.44,0,7.76,0.98,7.76,5.17c0,2.47-2.13,4.02-3.79,4.02c-0.8,0-1.72-0.29-2.07-0.4
				c-0.46-0.17-2.35-0.86-3.45-0.86c-0.52,0-2.93,0.34-3.96,3.79c-0.75,2.41-0.8,6.55-0.8,9.13v2.25H390.48z"/>
			<path class="st1" d="M438.29,192.44c0,3.5,0,5.28-1.26,6.55c-0.63,0.63-1.84,1.49-3.5,1.49c-1.32,0-2.64-0.52-3.62-1.49
				c-1.26-1.26-1.32-3.1-1.32-6.55V184c0-2.93,0.06-7.18-4.42-7.18c-1.84,0-4.14,0.98-5.06,3.91c-0.34,1.09-0.4,3.91-0.4,5.17v6.55
				c0,2.7,0.46,8.04-4.88,8.04c-4.77,0-4.83-4.14-4.83-8.04v-15.63c0-3.27,0-4.88,1.15-6.09c0.8-0.75,1.38-1.38,3.39-1.38
				c0.63,0,4.54,0.17,4.42,5.28c2.64-3.45,5.86-5.28,10.11-5.28c2.87,0,7.3,0.75,9.25,5.46c0.98,2.3,0.98,5.86,0.98,7.35v10.28
				H438.29z"/>
			<path class="st1" d="M461.33,181.18c1.61-0.34,2.07-0.63,2.81-0.92c-0.11-2.59-0.23-4.42-4.6-4.42c-1.89,0-4.54,0.4-5.8,2.41
				c-1.09,1.72-2.01,3.1-4.25,3.1c-1.55,0-3.96-1.03-3.96-3.5c0-2.99,2.3-5.28,4.02-6.32c2.35-1.44,4.88-2.18,9.94-2.18
				c10.51,0,14.07,2.93,14.07,11.55v8.16c0,1.38,0.06,2.47,0.57,4.02c0.86,2.64,0.98,2.58,0.98,3.56c0,1.9-1.9,3.85-4.65,3.85
				c-2.64,0-3.79-1.61-5-4.65c-3.33,2.82-7.07,4.65-11.2,4.65c-7.53,0-10.23-5-10.23-8.79c0-6.32,5.75-7.87,8.04-8.39L461.33,181.18
				z M458.34,187.27c-3.05,0.98-4.6,1.55-4.6,3.79c0,1.61,1.38,3.5,3.96,3.5c1.55,0,4.42-0.69,5.74-3.39
				c0.8-1.61,0.75-3.22,0.69-5.46C463.34,186.06,459.26,186.98,458.34,187.27z"/>
			<path class="st1" d="M491.84,188.59c0,2.82,0,4.6,2.3,4.6c1.78,0,3.16-0.57,4.14-0.57c1.67,0,2.99,1.44,2.99,3.16
				c0,2.13-1.49,3.16-3.1,3.73c-2.47,0.86-4.94,0.98-6.61,0.98c-9.25,0-9.42-5.34-9.42-11.49v-12.01c-1.44-0.06-2.76-0.17-3.45-0.86
				c-0.52-0.52-1.15-1.38-1.15-2.59c0-1.44,0.86-2.64,1.78-3.04c0.98-0.52,2.07-0.57,2.82-0.52v-4.25c0-2.93,0.06-4.08,0.69-5.34
				s2.3-2.41,4.19-2.41c1.95,0,3.56,1.15,4.19,2.41c0.52,1.03,0.63,2.01,0.63,4.31v5.34c3.04,0,3.79,0,4.83,0.46
				c0.8,0.34,1.72,1.55,1.72,2.99c0,1.32-0.75,2.64-1.72,3.05c-1.03,0.52-1.44,0.52-4.83,0.52V188.59z"/>
			<path class="st1" d="M512.87,192.44c0,3.5-0.06,5.28-1.32,6.55c-0.69,0.69-1.9,1.49-3.56,1.49c-1.26,0-2.59-0.52-3.56-1.49
				c-1.26-1.26-1.26-3.1-1.26-6.55v-15.05c0-3.45,0-5.23,1.26-6.49c0.86-0.86,2.07-1.55,3.56-1.55c1.03,0,4.14,0.52,4.71,3.96
				c0.23,1.26,0.17,1.72,0.17,4.08V192.44z M507.99,166.94c-2.47,0-4.48-2.01-4.48-4.48s2.01-4.48,4.48-4.48s4.48,2.01,4.48,4.48
				C512.47,164.92,510.46,166.94,507.99,166.94z"/>
			<path class="st1" d="M534.88,169.35c11.43,0,16.26,8.04,16.26,15.45s-4.83,15.68-16.26,15.68c-9.77,0-16.2-6.26-16.2-15.74
				C518.67,177.96,523.04,169.35,534.88,169.35z M534.93,193.36c3.39,0,6.49-2.53,6.49-8.39c0-4.37-1.89-8.5-6.49-8.5
				c-4.54,0-6.55,4.14-6.55,8.27C528.38,188.53,529.76,193.36,534.93,193.36z"/>
			<path class="st1" d="M586.07,192.44c0,3.5,0,5.28-1.26,6.55c-0.63,0.63-1.84,1.49-3.5,1.49c-1.32,0-2.64-0.52-3.62-1.49
				c-1.26-1.26-1.32-3.1-1.32-6.55V184c0-2.93,0.06-7.18-4.42-7.18c-1.84,0-4.14,0.98-5.06,3.91c-0.34,1.09-0.4,3.91-0.4,5.17v6.55
				c0,2.7,0.46,8.04-4.88,8.04c-4.77,0-4.83-4.14-4.83-8.04v-15.63c0-3.27,0-4.88,1.15-6.09c0.8-0.75,1.38-1.38,3.39-1.38
				c0.63,0,4.54,0.17,4.42,5.28c2.64-3.45,5.86-5.28,10.11-5.28c2.87,0,7.3,0.75,9.25,5.46c0.98,2.3,0.98,5.86,0.98,7.35
				L586.07,192.44L586.07,192.44z"/>
			<path class="st1" d="M609.11,181.18c1.61-0.34,2.07-0.63,2.81-0.92c-0.11-2.59-0.23-4.42-4.6-4.42c-1.89,0-4.54,0.4-5.8,2.41
				c-1.09,1.72-2.01,3.1-4.25,3.1c-1.55,0-3.96-1.03-3.96-3.5c0-2.99,2.3-5.28,4.02-6.32c2.35-1.44,4.88-2.18,9.94-2.18
				c10.51,0,14.07,2.93,14.07,11.55v8.16c0,1.38,0.06,2.47,0.57,4.02c0.86,2.64,0.98,2.58,0.98,3.56c0,1.9-1.9,3.85-4.65,3.85
				c-2.64,0-3.79-1.61-5-4.65c-3.33,2.82-7.07,4.65-11.2,4.65c-7.53,0-10.23-5-10.23-8.79c0-6.32,5.75-7.87,8.04-8.39L609.11,181.18
				z M606.13,187.27c-3.05,0.98-4.6,1.55-4.6,3.79c0,1.61,1.38,3.5,3.96,3.5c1.55,0,4.42-0.69,5.74-3.39
				c0.8-1.61,0.75-3.22,0.69-5.46C611.12,186.06,607.04,186.98,606.13,187.27z"/>
			<path class="st1" d="M638.48,192.44c0,3.5,0,5.28-1.26,6.55c-0.75,0.75-1.95,1.49-3.56,1.49c-1.26,0-2.59-0.52-3.56-1.49
				c-1.26-1.26-1.32-3.1-1.32-6.55v-26.43c0-3.5,0.06-5.23,1.32-6.55c0.75-0.69,1.95-1.49,3.56-1.49c1.26,0,2.58,0.52,3.56,1.49
				c1.26,1.26,1.26,3.1,1.26,6.55V192.44z"/>
			<path class="st1" d="M654.68,187.56c0.11,5.46,4.42,6.61,6.32,6.61c3.16,0,5.57-1.9,6.61-2.64c1.21-0.86,2.35-1.84,3.91-1.84
				c2.12,0,3.73,1.78,3.73,3.45c0,3.39-4.83,7.35-13.84,7.35c-12.52,0-16.6-7.87-16.6-15.51c0-6.43,3.39-15.63,15.74-15.63
				c11.32,0,14.76,8.5,14.76,12.64c0,1.21-0.4,3.96-3.16,5.06c-1.15,0.46-3.45,0.52-4.71,0.52h-12.76V187.56z M665.94,182.39
				c0.11-3.85-2.3-6.55-5.75-6.55c-4.83,0-5.34,5.11-5.51,6.55H665.94z"/>
			<path class="st1" d="M383.19,221.84c0-3.56,0-5.34,1.32-6.66c0.69-0.69,1.9-1.55,3.56-1.55c1.32,0,2.7,0.57,3.68,1.49
				c1.26,1.32,1.26,3.22,1.26,6.72v23.78c0,5.51,0,7.07-2.12,8.96c-0.75,0.63-2.07,1.55-4.25,1.55c-3.39,0-4.42-1.67-7.53-6.43
				l-12.24-18.96v17.23c0,3.56,0,5.34-1.26,6.61c-0.75,0.75-1.95,1.55-3.62,1.55c-1.32,0-2.7-0.52-3.62-1.49
				c-1.26-1.38-1.32-3.16-1.32-6.66v-24.01c0-5.4,0-6.95,2.12-8.79c0.69-0.63,2.01-1.55,4.14-1.55c3.27,0,4.37,1.67,7.35,6.32
				l12.52,19.47L383.19,221.84L383.19,221.84z"/>
			<path class="st1" d="M401,233.09c0-3.5,0-5.28,1.26-6.55c0.69-0.69,1.84-1.55,3.5-1.55c1.32,0,2.64,0.57,3.62,1.49
				c1.26,1.32,1.32,3.16,1.32,6.61v7.58c0,3.56,0.06,7.99,4.37,7.99c2.07,0,3.79-1.15,4.71-2.76c0.75-1.26,0.8-3.5,0.8-6.78v-6.09
				c0-3.45,0.06-5.23,1.32-6.49c0.69-0.69,1.9-1.55,3.5-1.55c1.32,0,2.64,0.57,3.56,1.49c1.32,1.32,1.32,3.1,1.32,6.55v15.63
				c0,3.22,0,4.88-1.21,6.09c-0.75,0.75-1.84,1.38-3.27,1.38c-0.63,0-4.59-0.11-4.54-5.34c-1.15,1.44-4.14,5.17-10.63,5.17
				c-3.45,0-7.07-1.72-8.39-4.65c-1.15-2.58-1.26-4.83-1.26-6.78v-11.44H401z"/>
			<path class="st1" d="M448.63,244.24c0,2.82,0,4.6,2.3,4.6c1.78,0,3.16-0.57,4.14-0.57c1.67,0,2.99,1.44,2.99,3.16
				c0,2.13-1.49,3.16-3.1,3.73c-2.47,0.86-4.94,0.98-6.61,0.98c-9.25,0-9.42-5.34-9.42-11.49v-12.01c-1.44-0.06-2.76-0.17-3.45-0.86
				c-0.52-0.52-1.15-1.38-1.15-2.59c0-1.44,0.86-2.64,1.78-3.04c0.98-0.52,2.07-0.57,2.82-0.52v-4.25c0-2.93,0.06-4.08,0.69-5.34
				s2.3-2.41,4.19-2.41c1.95,0,3.56,1.15,4.19,2.41c0.52,1.03,0.63,2.01,0.63,4.31v5.34c3.04,0,3.79,0,4.83,0.46
				c0.8,0.34,1.72,1.55,1.72,2.99c0,1.32-0.75,2.64-1.72,3.05c-1.03,0.52-1.44,0.52-4.83,0.52V244.24z"/>
			<path class="st1" d="M469.38,248.09c0,3.5,0,5.28-1.26,6.55c-0.69,0.69-1.9,1.49-3.56,1.49c-1.32,0-2.64-0.52-3.56-1.49
				c-1.32-1.26-1.32-3.1-1.32-6.55v-15.63c0-3.28,0-4.88,1.21-6.09c0.75-0.75,1.61-1.38,3.33-1.38c0.75,0,4.48,0,4.48,5.23
				c2.12-4.02,4.19-5.23,7.01-5.23c1.44,0,7.76,0.98,7.76,5.17c0,2.47-2.13,4.02-3.79,4.02c-0.8,0-1.72-0.29-2.07-0.4
				c-0.46-0.17-2.35-0.86-3.45-0.86c-0.52,0-2.93,0.34-3.96,3.79c-0.75,2.41-0.8,6.55-0.8,9.13v2.25H469.38z"/>
			<path class="st1" d="M497.82,248.09c0,3.5-0.06,5.28-1.32,6.55c-0.69,0.69-1.9,1.49-3.56,1.49c-1.26,0-2.59-0.52-3.56-1.49
				c-1.26-1.26-1.26-3.1-1.26-6.55v-15.05c0-3.45,0-5.23,1.26-6.49c0.86-0.86,2.07-1.55,3.56-1.55c1.03,0,4.14,0.52,4.71,3.96
				c0.23,1.26,0.17,1.72,0.17,4.08V248.09z M492.94,222.58c-2.47,0-4.48-2.01-4.48-4.48s2.01-4.48,4.48-4.48s4.48,2.01,4.48,4.48
				C497.41,220.57,495.4,222.58,492.94,222.58z"/>
			<path class="st1" d="M516.26,244.24c0,2.82,0,4.6,2.3,4.6c1.78,0,3.16-0.57,4.14-0.57c1.67,0,2.99,1.44,2.99,3.16
				c0,2.13-1.49,3.16-3.1,3.73c-2.47,0.86-4.94,0.98-6.61,0.98c-9.25,0-9.42-5.34-9.42-11.49v-12.01c-1.44-0.06-2.76-0.17-3.45-0.86
				c-0.52-0.52-1.15-1.38-1.15-2.59c0-1.44,0.86-2.64,1.78-3.04c0.98-0.52,2.07-0.57,2.82-0.52v-4.25c0-2.93,0.06-4.08,0.69-5.34
				s2.3-2.41,4.19-2.41c1.95,0,3.56,1.15,4.19,2.41c0.52,1.03,0.63,2.01,0.63,4.31v5.34c3.04,0,3.79,0,4.83,0.46
				c0.8,0.34,1.72,1.55,1.72,2.99c0,1.32-0.75,2.64-1.72,3.05c-1.03,0.52-1.44,0.52-4.83,0.52V244.24z"/>
			<path class="st1" d="M537.29,248.09c0,3.5-0.06,5.28-1.32,6.55c-0.69,0.69-1.9,1.49-3.56,1.49c-1.26,0-2.59-0.52-3.56-1.49
				c-1.26-1.26-1.26-3.1-1.26-6.55v-15.05c0-3.45,0-5.23,1.26-6.49c0.86-0.86,2.07-1.55,3.56-1.55c1.03,0,4.14,0.52,4.71,3.96
				c0.23,1.26,0.17,1.72,0.17,4.08V248.09z M532.41,222.58c-2.47,0-4.48-2.01-4.48-4.48s2.01-4.48,4.48-4.48s4.48,2.01,4.48,4.48
				C536.89,220.57,534.88,222.58,532.41,222.58z"/>
			<path class="st1" d="M559.3,225c11.43,0,16.26,8.04,16.26,15.45s-4.83,15.68-16.26,15.68c-9.77,0-16.2-6.26-16.2-15.74
				C543.1,233.61,547.46,225,559.3,225z M559.35,249.01c3.39,0,6.49-2.53,6.49-8.39c0-4.37-1.89-8.5-6.49-8.5
				c-4.54,0-6.55,4.14-6.55,8.27C552.81,244.18,554.18,249.01,559.35,249.01z"/>
			<path class="st1" d="M610.49,248.09c0,3.5,0,5.28-1.26,6.55c-0.63,0.63-1.84,1.49-3.5,1.49c-1.32,0-2.64-0.52-3.62-1.49
				c-1.26-1.26-1.32-3.1-1.32-6.55v-8.44c0-2.93,0.06-7.18-4.42-7.18c-1.84,0-4.14,0.98-5.06,3.91c-0.34,1.09-0.4,3.91-0.4,5.17
				v6.55c0,2.7,0.46,8.04-4.88,8.04c-4.77,0-4.83-4.14-4.83-8.04v-15.63c0-3.28,0-4.88,1.15-6.09c0.8-0.75,1.38-1.38,3.39-1.38
				c0.63,0,4.54,0.17,4.42,5.28c2.64-3.45,5.86-5.28,10.11-5.28c2.87,0,7.3,0.75,9.25,5.46c0.98,2.3,0.98,5.86,0.98,7.35
				L610.49,248.09L610.49,248.09z"/>
		</g>
	</g>
	<g>
		<g>
			<path class="st1" d="M272.26,236.74c-3.01,0-4.25-0.67-5.09-1.22c-0.4-0.26-1.88-1.33-1.88-2.89c0-0.93,0.61-1.97,1.82-1.97
				c0.96,0,1.3,0.46,2.11,1.56c0.78,1.07,2.11,1.45,3.36,1.45c1.33,0,2.11-0.78,2.11-1.39c0-0.87-1.45-1.36-2.49-1.62
				c-1.16-0.29-3.53-0.98-4.46-1.53c-1.36-0.81-2.32-2-2.32-3.47c0-1.56,1.16-4.6,6.19-4.6c5.01,0,6.8,1.85,6.8,3.5
				c0,0.81-0.46,1.76-1.74,1.76c-0.87,0-1.36-0.41-2.26-1.19c-0.67-0.58-1.65-1.16-2.69-1.16c-0.9,0-1.88,0.38-1.88,1.1
				c0,0.93,0.92,1.16,3.27,1.74c2.98,0.72,6.16,1.5,6.16,4.83C279.29,233.53,278.05,236.74,272.26,236.74z"/>
			<path class="st1" d="M282.19,225.14c0-1.76,0-2.66,0.64-3.3c0.35-0.35,0.93-0.78,1.77-0.78c0.66,0,1.33,0.29,1.82,0.75
				c0.64,0.67,0.66,1.59,0.66,3.33v3.82c0,1.79,0.03,4.02,2.2,4.02c1.04,0,1.91-0.58,2.37-1.39c0.38-0.64,0.41-1.77,0.41-3.41v-3.07
				c0-1.74,0.03-2.63,0.66-3.27c0.35-0.35,0.96-0.78,1.77-0.78c0.67,0,1.33,0.29,1.79,0.75c0.66,0.67,0.66,1.56,0.66,3.3v7.87
				c0,1.62,0,2.46-0.61,3.07c-0.38,0.38-0.92,0.7-1.65,0.7c-0.32,0-2.32-0.06-2.29-2.69c-0.58,0.72-2.08,2.6-5.35,2.6
				c-1.74,0-3.56-0.87-4.22-2.34c-0.58-1.3-0.64-2.43-0.64-3.41L282.19,225.14L282.19,225.14z"/>
			<path class="st1" d="M305.48,232.69c0,1.76,0,2.66-0.64,3.3c-0.35,0.35-0.96,0.75-1.79,0.75c-0.66,0-1.33-0.26-1.79-0.75
				c-0.66-0.64-0.66-1.56-0.66-3.3v-7.87c0-1.65,0-2.46,0.61-3.07c0.38-0.38,0.81-0.69,1.68-0.69c0.38,0,2.26,0,2.26,2.63
				c1.07-2.03,2.11-2.63,3.53-2.63c0.72,0,3.91,0.49,3.91,2.6c0,1.24-1.07,2.03-1.91,2.03c-0.41,0-0.87-0.14-1.04-0.2
				c-0.23-0.09-1.19-0.43-1.74-0.43c-0.26,0-1.47,0.17-2,1.91c-0.38,1.22-0.41,3.3-0.41,4.6L305.48,232.69L305.48,232.69z"/>
			<path class="st1" d="M328.68,232.69c0,1.76,0,2.66-0.64,3.3c-0.38,0.38-0.98,0.75-1.79,0.75c-0.64,0-1.3-0.26-1.79-0.75
				c-0.64-0.64-0.67-1.56-0.67-3.3v-13.31c0-1.76,0.03-2.63,0.67-3.3c0.38-0.35,0.98-0.75,1.79-0.75c0.64,0,1.3,0.26,1.79,0.75
				c0.64,0.64,0.64,1.56,0.64,3.3V232.69z"/>
			<path class="st1" d="M340.43,227.02c0.81-0.17,1.04-0.32,1.42-0.46c-0.06-1.3-0.11-2.23-2.31-2.23c-0.96,0-2.29,0.2-2.92,1.22
				c-0.55,0.87-1.01,1.56-2.14,1.56c-0.78,0-2-0.52-2-1.77c0-1.5,1.16-2.66,2.03-3.18c1.19-0.72,2.46-1.1,5.01-1.1
				c5.29,0,7.09,1.48,7.09,5.82v4.11c0,0.69,0.03,1.24,0.29,2.03c0.43,1.33,0.49,1.3,0.49,1.79c0,0.95-0.95,1.94-2.34,1.94
				c-1.33,0-1.91-0.81-2.52-2.34c-1.68,1.42-3.56,2.34-5.64,2.34c-3.79,0-5.15-2.52-5.15-4.43c0-3.18,2.89-3.96,4.05-4.22
				L340.43,227.02z M338.92,230.08c-1.53,0.49-2.31,0.78-2.31,1.91c0,0.81,0.69,1.76,2,1.76c0.78,0,2.23-0.35,2.89-1.71
				c0.41-0.81,0.38-1.62,0.35-2.75C341.44,229.48,339.39,229.94,338.92,230.08z"/>
		</g>
	</g>
	<g>
		<path class="st1" d="M202.88,74.59c0,0-36.71-17.49-22.97-60.32C179.91,14.27,217.49,33.29,202.88,74.59z"/>
		<path class="st1" d="M215.12,73.53c0,0-10.3-42.5,34.77-60.07C249.88,13.46,259.49,57.72,215.12,73.53z"/>
		<path class="st1" d="M212.67,84.23c0,0,32.48-24.47,64.1,7.52C276.77,91.75,242.53,116.28,212.67,84.23z"/>
	</g>
	<path class="st2" d="M103.42,87.23c-32.19-8.74-66.01,9.04-76.77,41.07c-4.7,14-4.19,28.47,0.39,41.39l-0.12,0.04l18.78,52.34
		l30.69-11.01c6.23,1.05,12.45,1.13,18.51,0.35l-5.62-7.11l0.13-0.1c-11.12-14.17-17.81-32-17.81-51.42
		C71.6,126.19,84.05,102.52,103.42,87.23z"/>
	<path class="st1" d="M89.41,204.21l-0.13,0.1l5.62,7.11c0.26-0.03,0.52-0.06,0.78-0.1C93.45,209.07,91.36,206.7,89.41,204.21z"/>
	<path class="st1" d="M155.08,69.3c-19.51,0-37.45,6.71-51.66,17.93c-19.37,15.29-31.82,38.96-31.82,65.55
		c0,19.42,6.69,37.24,17.81,51.42c1.95,2.49,4.05,4.87,6.26,7.12c-0.26,0.04-0.52,0.06-0.78,0.1l39.69,50.27l33.64-26.56
		c8.16-1.29,15.92-3.78,23.12-7.26l-24-9.76c-16.61-3.9-28.85-12.14-37.92-22.51l-0.01-0.01c-23.34-26.72-25.35-67.66-24.95-85.73
		c0.1-4.51,0.34-7.56,0.44-8.64c0.03-0.28,0.04-0.47,0.04-0.47c0.46,1.93,0.96,3.68,1.45,5.48c9.99,36.83,26.82,48.17,43.65,48.28
		c20.67,0.14,41.34-16.64,49.34-23.95c2.09-2.11,3.48-3.34,3.48-3.34s-1.27,1.31-3.48,3.34c-7.68,7.77-25.25,28.26-21.89,50.46
		c1.25,8.3,14.43,20.04,33.98,33.21c16.64-15.23,27.09-37.1,27.09-61.45C238.56,106.68,201.19,69.3,155.08,69.3z M154.46,140.8
		c-1.52,0.4-3.05,0.53-4.54,0.45c-6.25-0.35-11.83-4.66-13.49-11.04c-1.45-5.59,0.5-11.25,4.57-14.82c1.68-1.48,3.71-2.6,6.02-3.21
		c7.9-2.05,15.97,2.69,18.03,10.59C167.1,130.68,162.36,138.75,154.46,140.8z"/>
	<path class="st1" d="M202.87,127.23c0,0-1.4,1.23-3.48,3.34C201.6,128.54,202.87,127.23,202.87,127.23z"/>
</g>
</svg>
