<?xml version="1.0" encoding="utf-8"?>
<!-- Generator: Adobe Illustrator 26.3.1, SVG Export Plug-In . SVG Version: 6.00 Build 0)  -->
<svg version="1.1" id="Calque_1" xmlns="http://www.w3.org/2000/svg" xmlns:xlink="http://www.w3.org/1999/xlink" x="0px" y="0px"
	 viewBox="0 0 419.53 232.64" style="enable-background:new 0 0 419.53 232.64;" xml:space="preserve">
<style type="text/css">
	.st0{fill:#F0E6D4;}
</style>
<g>
	<path class="st0" d="M102.2,128.26c0,18.68,15.14,33.82,33.82,33.82s33.82-15.14,33.82-33.82c0-0.05,0-0.1,0-0.15h-67.63
		C102.21,128.16,102.2,128.21,102.2,128.26z"/>
</g>
<rect x="133.75" y="159.81" class="st0" width="5.31" height="72.79"/>
<path class="st0" d="M136.85,195.79c0,0-14.01-1.14-23.97-10.41s-12.09-23.17-12.09-23.17s14.01,1.14,23.97,10.41
	S136.85,195.79,136.85,195.79z"/>
<path class="st0" d="M134.18,195.95c0,0,2.36-13.86,12.47-22.97s24.14-10.02,24.14-10.02s-2.36,13.86-12.47,22.97
	C148.21,195.04,134.18,195.95,134.18,195.95z"/>
<path class="st0" d="M136.85,223.69c0,0-14.01-1.14-23.97-10.41s-12.09-23.17-12.09-23.17s14.01,1.14,23.97,10.41
	S136.85,223.69,136.85,223.69z"/>
<path class="st0" d="M134.18,223.85c0,0,2.36-13.86,12.47-22.97c10.11-9.11,24.14-10.02,24.14-10.02s-2.36,13.86-12.47,22.97
	C148.21,222.94,134.18,223.85,134.18,223.85z"/>
<path class="st0" d="M290.73,76.51L290.73,76.51c1.15-0.15,7.46-1.15,12-5.53c5.01-4.83,5.97-11.95,5.97-11.95
	s-7.17,0.72-12.18,5.55c-4.37,4.22-5.66,10.17-5.91,11.62c-0.26-1.68-1.41-7.44-5.51-11.66c-4.85-4.99-12-5.94-12-5.94
	s0.72,7.14,5.58,12.13c4.02,4.14,9.61,5.5,11.41,5.84c-1.88,0.3-7.43,1.5-11.53,5.46c-5.01,4.83-5.97,11.95-5.97,11.95
	s7.17-0.72,12.18-5.55c4.32-4.17,5.63-10.03,5.9-11.57c0.22,1.53,1.33,7.44,5.53,11.76c4.85,4.99,12,5.94,12,5.94
	s-0.72-7.14-5.58-12.13C298.11,77.8,291.63,76.65,290.73,76.51z"/>
<polygon class="st0" points="272.51,127.44 203.5,127.44 272.51,58.44 "/>
<g>
	<path class="st0" d="M384.74,86.57l5.67-2.73l-8.63-2.65V74.8c-11.9,0-21.91,8.06-24.88,19.02h-22.34l0,0
		c0,11.92,8.88,21.76,20.38,23.27v6.96h-3.9v3.52h11.6v-3.52h-3.9v-6.76c12.75-0.13,23.04-10.5,23.04-23.27v-2.07l8.63-2.65
		L384.74,86.57z M377.03,83.54c-0.86,0-1.55-0.7-1.55-1.55c0-0.86,0.7-1.55,1.55-1.55c0.86,0,1.55,0.7,1.55,1.55
		C378.58,82.85,377.89,83.54,377.03,83.54z"/>
	<path class="st0" d="M371.46,74.68h4.76c0-1.74-1.41-3.15-3.15-3.15h-4.76C368.32,73.27,369.73,74.68,371.46,74.68z"/>
	<path class="st0" d="M381.78,74.16L381.78,74.16v-7.02h-7.02C374.76,71.02,377.91,74.16,381.78,74.16z"/>
	<path class="st0" d="M344.86,88.09c0,1.39-0.3,2.72-0.83,3.91h10.49v-9.12c0-7.42-6.02-13.44-13.44-13.44h-9.12v9.53
		c1.01-0.36,2.09-0.55,3.22-0.55C340.53,78.42,344.86,82.75,344.86,88.09z"/>
	<path class="st0" d="M341.41,87.05c0-3.24-2.63-5.87-5.87-5.87s-5.87,2.63-5.87,5.87c0,3.24,2.63,5.87,5.87,5.87
		S341.41,90.29,341.41,87.05z"/>
</g>
<g>
	<path class="st0" d="M352.89,140.8c-0.18,0.52-0.51,0.96-0.95,1.27c0.22,0.02,0.44,0.07,0.65,0.15c0.25-0.33,0.57-0.6,0.94-0.78
		C353.28,141.27,353.06,141.05,352.89,140.8z"/>
	<path class="st0" d="M362.31,146.76c0.39,0,0.78,0,1.17,0c-0.05-0.16-0.08-0.33-0.09-0.51
		C363.08,146.49,362.72,146.67,362.31,146.76z"/>
	<path class="st0" d="M361.1,146.76c0.05,0,0.1,0,0.16,0c-0.05-0.01-0.09-0.03-0.13-0.04C361.11,146.73,361.1,146.74,361.1,146.76z"
		/>
	<path class="st0" d="M395.54,127.34h-69.37v33.97h29.19c-11.24-0.93-19.67-4.8-19.67-9.44c0-2.3,2.03-3.56,5.44-4.26
		c-0.16-0.34-0.26-0.72-0.26-1.12c0-1.46,1.18-2.65,2.65-2.65s2.65,1.18,2.65,2.65c0,0.17-0.02,0.34-0.05,0.5
		c0.23-0.02,0.46-0.03,0.69-0.04c0.01-0.28,0.06-0.54,0.15-0.79c-0.64-0.48-1.06-1.24-1.06-2.1c0-1.35,1.02-2.46,2.33-2.61
		c-0.3-0.43-0.48-0.95-0.48-1.51c0-1.46,1.18-2.65,2.65-2.65c0.9,0,1.69,0.45,2.17,1.14c0.36-1.03,1.33-1.77,2.49-1.77
		c1.43,0,2.59,1.14,2.64,2.56c0.33-0.14,0.69-0.23,1.07-0.23c0.42,0,0.82,0.11,1.17,0.29c0.26-1.19,1.32-2.09,2.58-2.09
		c1.17,0,2.15,0.77,2.5,1.82c1.23,0.11,2.21,1.04,2.38,2.25c0.41-0.26,0.89-0.42,1.41-0.42c0.47,0,0.91,0.13,1.29,0.35
		c0-0.06-0.02-0.12-0.02-0.19c0-1.46,1.18-2.65,2.65-2.65s2.65,1.18,2.65,2.65c0,0.36-0.07,0.71-0.21,1.03
		c0.81,0.45,1.37,1.31,1.37,2.31c0,0.03-0.01,0.06-0.01,0.1c0.47-0.42,1.08-0.68,1.76-0.68c1.38,0,2.5,1.06,2.62,2.41
		c1.31,0.15,2.34,1.24,2.35,2.6c1.36,0.74,2.13,1.74,2.13,3.12c0,4.64-8.43,8.51-19.67,9.44h29.82V127.34z"/>
	<path class="st0" d="M371.45,143.33c0-0.01,0.01-0.02,0.01-0.03l-0.01-0.01C371.45,143.3,371.45,143.31,371.45,143.33z"/>
</g>
<g>
	<path class="st0" d="M119.67,19.89c3.35,0,6.07-2.72,6.07-6.07c0-2.87-2-5.27-4.67-5.9c0.01-0.01,0.01-0.01,0.02-0.02
		c0.81-0.81,1.22-1.7,0.93-1.99c-0.27-0.27-1.06,0.07-1.82,0.76c-0.01-1.11-0.34-2-0.75-2c-0.42,0-0.75,0.92-0.75,2.06
		c0,0.02,0,0.04,0,0.07c-0.79-0.76-1.64-1.15-1.92-0.86c-0.29,0.29,0.12,1.19,0.93,1.99c0.04,0.04,0.08,0.08,0.12,0.11
		c-2.45,0.78-4.22,3.07-4.22,5.78C113.6,17.17,116.32,19.89,119.67,19.89z"/>
	<path class="st0" d="M133.96,19.78c3.35,0,6.07-2.72,6.07-6.07c0-2.87-2-5.27-4.67-5.9c0.01-0.01,0.01-0.01,0.02-0.02
		c0.81-0.81,1.22-1.7,0.93-1.99c-0.27-0.27-1.06,0.07-1.82,0.76c-0.01-1.11-0.34-2-0.75-2c-0.42,0-0.75,0.92-0.75,2.06
		c0,0.02,0,0.04,0,0.07c-0.79-0.76-1.64-1.15-1.92-0.86c-0.29,0.29,0.12,1.19,0.93,1.99c0.04,0.04,0.08,0.08,0.12,0.11
		c-2.45,0.78-4.22,3.07-4.22,5.78C127.88,17.06,130.6,19.78,133.96,19.78z"/>
	<path class="st0" d="M148.56,19.78c3.35,0,6.07-2.72,6.07-6.07c0-2.87-2-5.27-4.67-5.9c0.01-0.01,0.01-0.01,0.02-0.02
		c0.81-0.81,1.22-1.7,0.93-1.99c-0.27-0.27-1.06,0.07-1.82,0.76c-0.01-1.11-0.34-2-0.75-2c-0.42,0-0.75,0.92-0.75,2.06
		c0,0.02,0,0.04,0,0.07c-0.79-0.76-1.64-1.15-1.92-0.86c-0.29,0.29,0.12,1.19,0.93,1.99c0.04,0.04,0.08,0.08,0.12,0.11
		c-2.45,0.78-4.22,3.07-4.22,5.78C142.49,17.06,145.21,19.78,148.56,19.78z"/>
	<path class="st0" d="M161.96,28.54c0.05-0.32,0.08-0.64,0.08-0.97c0-2.87-2-5.27-4.67-5.9c0.01-0.01,0.01-0.01,0.02-0.02
		c0.81-0.81,1.22-1.7,0.93-1.99c-0.27-0.27-1.06,0.07-1.82,0.76c-0.01-1.11-0.34-2-0.75-2c-0.42,0-0.75,0.92-0.75,2.06
		c0,0.02,0,0.04,0,0.07c-0.79-0.76-1.64-1.15-1.92-0.86c-0.29,0.29,0.12,1.19,0.93,1.99c0.04,0.04,0.08,0.08,0.12,0.11
		c-2.45,0.78-4.22,3.07-4.22,5.78c0,0.33,0.03,0.65,0.08,0.97h6.27H161.96z"/>
	<path class="st0" d="M147.54,27.57c0-2.87-2-5.27-4.67-5.9c0.01-0.01,0.01-0.01,0.02-0.02c0.81-0.81,1.22-1.7,0.93-1.99
		c-0.27-0.27-1.06,0.07-1.82,0.76c-0.01-1.11-0.34-2-0.75-2c-0.42,0-0.75,0.92-0.75,2.06c0,0.02,0,0.04,0,0.07
		c-0.79-0.76-1.64-1.15-1.92-0.86c-0.29,0.29,0.12,1.19,0.93,1.99c0.04,0.04,0.08,0.08,0.12,0.11c-2.45,0.78-4.22,3.07-4.22,5.78
		c0,0.33,0.03,0.65,0.08,0.97h11.98C147.51,28.22,147.54,27.9,147.54,27.57z"/>
	<path class="st0" d="M133.04,27.57c0-2.87-2-5.27-4.67-5.9c0.01-0.01,0.01-0.01,0.02-0.02c0.81-0.81,1.22-1.7,0.93-1.99
		c-0.27-0.27-1.06,0.07-1.82,0.76c-0.01-1.11-0.34-2-0.75-2c-0.42,0-0.75,0.92-0.75,2.06c0,0.02,0,0.04,0,0.07
		c-0.79-0.76-1.64-1.15-1.92-0.86c-0.29,0.29,0.12,1.19,0.93,1.99c0.04,0.04,0.08,0.08,0.12,0.11c-2.45,0.78-4.22,3.07-4.22,5.78
		c0,0.33,0.03,0.65,0.08,0.97h11.98C133.01,28.22,133.04,27.9,133.04,27.57z"/>
	<path class="st0" d="M118.46,28.54c0.05-0.32,0.08-0.64,0.08-0.97c0-2.87-2-5.27-4.67-5.9c0.01-0.01,0.01-0.01,0.02-0.02
		c0.81-0.81,1.22-1.7,0.93-1.99c-0.27-0.27-1.06,0.07-1.82,0.76c-0.01-1.11-0.34-2-0.75-2c-0.42,0-0.75,0.92-0.75,2.06
		c0,0.02,0,0.04,0,0.07c-0.79-0.76-1.64-1.15-1.92-0.86c-0.29,0.29,0.12,1.19,0.93,1.99c0.04,0.04,0.08,0.08,0.12,0.11
		c-2.45,0.78-4.22,3.07-4.22,5.78c0,0.33,0.03,0.65,0.08,0.97h6.87H118.46z"/>
	<rect x="101.96" y="28.54" class="st0" width="4.34" height="9.13"/>
	<path class="st0" d="M113.35,33.58v4.1h42.9v-4.04c-0.09,0-0.18,0.01-0.28,0.01c-3.02,0-5.52-2.21-5.99-5.11h-2.52
		c-0.46,2.89-2.96,5.11-5.99,5.11c-3.02,0-5.52-2.21-5.99-5.11h-2.52c-0.46,2.89-2.96,5.11-5.99,5.11c-3.02,0-5.52-2.21-5.99-5.11
		h-2.52C118.04,31.15,115.97,33.2,113.35,33.58z"/>
	<path class="st0" d="M155.97,33.65c0.09,0,0.19-0.01,0.28-0.01v-5.09h-6.27C150.45,31.43,152.95,33.65,155.97,33.65z"/>
	<path class="st0" d="M141.47,33.65c3.02,0,5.52-2.21,5.99-5.11h-11.98C135.95,31.43,138.45,33.65,141.47,33.65z"/>
	<path class="st0" d="M126.97,33.65c3.02,0,5.52-2.21,5.99-5.11h-11.98C121.45,31.43,123.95,33.65,126.97,33.65z"/>
	<path class="st0" d="M113.35,33.58c2.62-0.38,4.69-2.43,5.11-5.04h-5.11V33.58z"/>
	<rect x="101.96" y="39.59" class="st0" width="4.34" height="8.28"/>
	<rect x="163.3" y="39.59" class="st0" width="7.66" height="8.28"/>
	<rect x="163.3" y="28.54" class="st0" width="7.66" height="9.13"/>
	<polygon class="st0" points="163.3,58.39 156.25,58.39 156.25,49.78 113.35,49.78 113.35,58.39 106.29,58.39 106.29,49.78 
		101.96,49.78 101.96,58.91 170.96,58.91 170.96,49.78 163.3,49.78 	"/>
	<rect x="113.35" y="39.59" class="st0" width="42.9" height="8.28"/>
</g>
<path class="st0" d="M190.37,52.64v-3.35c0.67,0.28,1.97-0.21,3.13-1.24c1.35-1.19,2.01-2.63,1.48-3.24
	c-0.53-0.6-2.05-0.13-3.4,1.06c-0.51,0.45-0.93,0.94-1.21,1.41v-1.21c0.31-0.66-0.18-1.98-1.22-3.17c-1.19-1.35-2.63-2.01-3.24-1.48
	s-0.13,2.05,1.06,3.4c0.94,1.06,2.03,1.69,2.75,1.65v6.17h-13.16v-3.35c0.67,0.28,1.97-0.21,3.13-1.24
	c1.35-1.19,2.01-2.63,1.48-3.24c-0.53-0.6-2.05-0.13-3.4,1.06c-0.51,0.45-0.93,0.94-1.21,1.41v-1.21c0.31-0.66-0.18-1.98-1.22-3.17
	c-1.19-1.35-2.63-2.01-3.24-1.48s-0.13,2.05,1.06,3.4c0.94,1.06,2.03,1.69,2.75,1.65v6.17h-5.16v6.19h25.08v-6.19L190.37,52.64
	L190.37,52.64z"/>
<g>
	<path class="st0" d="M231.95,48.44v-3.33h2.86l-2.94-20.72H217.1v8.29h-2.02l-12.02-12.02c-0.57-0.57-1.44-0.68-2.13-0.27
		l-6.69,3.92l2.46,4.29l4.13-2.54l6.67,6.67h-6.99l-3.33,12.38h3.41v3.1h-4.76v10.64h41.43v-10.4L231.95,48.44L231.95,48.44z
		 M229.09,35.82h-8.41V27.4h8.41V35.82z"/>
</g>
<g>
	<path class="st0" d="M221.48,213.86c0,1.71,1.38,3.09,3.09,3.09c1.71,0,3.09-1.38,3.09-3.09c0-0.67-0.22-1.29-0.58-1.79
		c-0.56-0.78-1.48-1.3-2.51-1.3c-0.69,0-1.32,0.23-1.84,0.62c-0.35,0.44-0.69,0.89-1.03,1.34
		C221.56,213.08,221.48,213.46,221.48,213.86z"/>
	<path class="st0" d="M218.45,212.48h-10.68c-0.22,4.65-4.05,8.36-8.76,8.36c-4.85,0-8.78-3.93-8.78-8.78
		c0-2.89,1.41-5.45,3.56-7.05v-11.18c0-1.48,1.2-2.69,2.69-2.69h15.15c1.48,0,2.69,1.2,2.69,2.69v7.33h11.47
		c1.22,0,2.21,0.99,2.21,2.21v2.18c8.67-8.45,19.85-14.34,32.31-16.44c-5.95-6.26-14.34-10.17-23.66-10.17H169.8v52.86h42.3
		c1.59-5.33,3.89-10.35,6.79-14.97c-0.41-0.84-0.64-1.77-0.64-2.76C218.24,213.52,218.32,212.99,218.45,212.48z"/>
	<path class="st0" d="M199.01,207.82c-2.34,0-4.23,1.9-4.23,4.23c0,0.01,0,0.02,0,0.03c0.01,2.33,1.9,4.21,4.23,4.21
		c2.2,0,4-1.67,4.21-3.81c0.01-0.14,0.02-0.28,0.02-0.42C203.24,209.72,201.34,207.82,199.01,207.82z"/>
	<path class="st0" d="M221.8,212.48c-0.04,0.08-0.07,0.16-0.11,0.24c0.34-0.45,0.68-0.9,1.03-1.34
		C222.34,211.67,222.02,212.05,221.8,212.48z"/>
	<rect x="197.74" y="194.59" class="st0" width="12.49" height="6.67"/>
</g>
<g>
	<path class="st0" d="M239.56,231.78h2.58c6.97-11.52,19.56-19.23,33.91-19.23h49.53v-2.25h-49.53
		C260.41,210.31,246.76,218.98,239.56,231.78z"/>
	<path class="st0" d="M252.05,231.78h3.11c7.16-7.08,16.97-11.46,27.78-11.46h42.65v-2.25h-42.65
		C270.72,218.08,259.72,223.37,252.05,231.78z"/>
	<path class="st0" d="M265.84,231.78h4.62c5.24-2.57,11.12-4.02,17.34-4.02h37.79v-2.25H287.8
		C279.75,225.52,272.23,227.81,265.84,231.78z"/>
	<path class="st0" d="M312.83,196.86v-16.81l-10.16-6.03l-24.61,0.79l10.16,5.24v16.81h-6.99v-9.99h-5.72v9.99H264.3
		c-20.65,0-37.86,15.11-41.29,34.93h2.27c3.41-18.57,19.6-32.68,39.02-32.68h61.27v-2.25H312.83z"/>
	<path class="st0" d="M232.55,231.78h2.4c5.94-14.55,20.16-24.83,36.73-24.83h53.9v-2.25h-53.9
		C253.86,204.71,238.61,215.97,232.55,231.78z"/>
</g>
<g>
	<path class="st0" d="M197.63,151.52c-0.42-2.22,6.67-13.02-4.87-12.49s-8.89,10.69-8.78,13.55s-0.53,3.49-0.53,3.49
		c-5.4,12.59,5.72,14.29,5.72,14.29s0.57,0.06,1.48,0.03v-5.43l-0.02-0.01l0.02-0.03v-8l-4.41-7.64l1.83-1.06l2.58,4.46v-7.71h2.12
		v11.38l0.05,0.09l-0.05,0.03v5.42l3.29-4.71l1.74,1.21l-5.03,7.2v4.62c2.78-0.43,6.5-1.73,8.57-5.44
		C204.93,158.29,198.05,153.74,197.63,151.52z"/>
	<path class="st0" d="M190.64,182.53h2.12v-12.34c-0.8,0.12-1.53,0.18-2.12,0.2V182.53z"/>
</g>
<g>
	<path class="st0" d="M212.98,151.6c0.42-2.22-6.67-13.02,4.87-12.49s8.89,10.69,8.78,13.55s0.53,3.49,0.53,3.49
		c5.4,12.59-5.72,14.29-5.72,14.29s-0.57,0.06-1.48,0.03v-5.43l0.02-0.01l-0.02-0.03v-8l4.41-7.64l-1.83-1.06l-2.58,4.46v-7.71
		h-2.12v11.38l-0.05,0.09l0.05,0.03v5.42l-3.29-4.71l-1.74,1.21l5.03,7.2v4.62c-2.78-0.43-6.5-1.73-8.57-5.44
		C205.68,158.37,212.56,153.82,212.98,151.6z"/>
	<path class="st0" d="M219.97,182.61h-2.12v-12.34c0.8,0.12,1.53,0.18,2.12,0.2V182.61z"/>
</g>
<circle class="st0" cx="297.99" cy="149.24" r="11.03"/>
<g>
	<path class="st0" d="M265.76,146.23c-1.3,0-2.52,0.37-3.55,1.01c-1.72-3.01-4.96-5.04-8.67-5.04c-3.97,0-7.38,2.32-9,5.67
		c-1.19-1.01-2.73-1.63-4.42-1.63c-3.58,0-6.51,2.76-6.8,6.27h39.24C272.28,148.99,269.34,146.23,265.76,146.23z"/>
</g>
<g>
	<path class="st0" d="M201.9,78.46h-6.67l4.73-4.73l-1.98-1.98l-5.92,5.92l-0.79,0.79h-2.38h-2.6c0.11,0.8,0.18,1.61,0.18,2.44l0,0
		c0,0.12-0.01,0.24-0.01,0.35h2.02h3.21l0.37,0.37l5.92,5.92l1.98-1.98l-4.32-4.32h6.26L201.9,78.46L201.9,78.46z"/>
	<path class="st0" d="M186.29,78.46c-1.42-10.16-11.53-17.11-21.78-14.31l-1.01,0.28l-0.48,3.41l-0.65,4.61l-0.65-4.61l-0.39-2.82
		l-15.22,4.17l-0.51,3.62l-0.65,4.61l-0.65-4.61l-0.42-3.02l-16.16,4.42l-0.47,2.52l-0.65,3.46l-0.65-3.46l-0.36-1.94l-17.41,4.77
		c-1.36,0.37-1.36,2.3,0,2.67l27.19,7.45l0.45-3.33l0.65-4.78l0.65,4.78l0.53,3.95l7.22,1.98l12.11,3.32l0.5-3.71l0.65-4.78
		l0.65,4.78l0.59,4.36l5.12,1.4c10.94,2.99,21.72-5.12,21.94-16.4c0-0.12,0.01-0.24,0.01-0.35l0,0
		C186.46,80.07,186.4,79.26,186.29,78.46z"/>
</g>
<path class="st0" d="M151.1,116.87c0,0-1.56-2.47-3.06-2.99c0,0-4.49-1.66-4.83-4.04c-0.34-2.38,1.07-3.4,2.15-2.81
	c1.08,0.59,4.27,4.61,7.52,3.62s3.54-0.77,7.98,0.17s13.57,2.11,18.19-2.37c4.63-4.48,6.54-5.46,9.88-4.92l2.31-0.75l1.58,2.16
	c0,0-1.6,2.24-1.7,3.67c-0.1,1.43-0.89,4.24-2.43,6.68C182.9,124.5,158.16,129.67,151.1,116.87z"/>
<g>
	<path class="st0" d="M125.99,107.15c-0.76-0.25-1.57-0.25-2.37-0.04c-1.2,0.31-2.41,0.44-3.64,0.43c1.43-2.46,3.57-4.3,3.97-4.7
		c0.52-0.52-0.09-1.32-1.08-1.69c-0.99-0.38-1.32,0.61-1.32,0.61l-2.78,5.73c-0.96-0.08-1.92-0.25-2.86-0.49
		c-0.74-0.19-1.48-0.2-2.2,0.01c-3.17,0.91-4.59,5.65-3.17,10.58c1.42,4.93,5.14,8.18,8.31,7.27c0.26-0.08,0.51-0.18,0.75-0.3
		c0.2,0.1,0.4,0.19,0.62,0.26c3.14,1.02,6.97-2.1,8.56-6.98C130.37,112.95,129.12,108.17,125.99,107.15z"/>
	<path class="st0" d="M118.78,105.93c0,0,0.14-2.58-1.37-4.12s-3.34-2.2-4.09-1.46c-0.75,0.74-0.14,2.58,1.37,4.12
		C116.2,106.01,118.78,105.93,118.78,105.93z"/>
</g>
<g>
	<path class="st0" d="M0.09,61.14v101.44h100.49V61.14H0.09z M49.82,158.9c-26.61,0-44.51-27.25-33.95-51.67l5.8-13.41L28.9,77.1
		c7.93-18.32,33.91-18.32,41.84,0l7.23,16.72l5.8,13.41C94.33,131.65,76.43,158.9,49.82,158.9z"/>
	<path class="st0" d="M49.82,103.83c-10.63,0-19.26,8.62-19.26,19.26c0,10.63,8.62,19.26,19.26,19.26s19.26-8.62,19.26-19.26
		C69.07,112.45,60.45,103.83,49.82,103.83z"/>
</g>
<g>
	<path class="st0" d="M287.21,113.52c-2.63,1.63-4.28,3.74-3.69,4.72s3.2,0.46,5.83-1.17c2.63-1.63,4.28-3.74,3.69-4.72
		C292.45,111.37,289.84,111.9,287.21,113.52z"/>
	<path class="st0" d="M304.6,110.43c-2.91-1.01-5.57-0.96-5.94,0.13c-0.37,1.09,1.69,2.79,4.61,3.8c2.91,1.01,5.57,0.96,5.94-0.13
		C309.57,113.14,307.51,111.44,304.6,110.43z"/>
	<path class="st0" d="M285.32,109.29c0.96,0.05,1.84-2.04,1.98-4.67s-0.52-4.81-1.48-4.86c-0.95-0.05-1.84,2.04-1.98,4.67
		C283.71,107.07,284.37,109.24,285.32,109.29z"/>
	<path class="st0" d="M298.32,114.79c-0.96-0.05-1.84,2.04-1.98,4.67s0.52,4.81,1.48,4.86c0.96,0.05,1.84-2.04,1.98-4.67
		C299.94,117.02,299.28,114.84,298.32,114.79z"/>
	<path class="st0" d="M302.33,103.83c2.08,1.58,4.23,2.24,4.8,1.47c0.58-0.78-0.64-2.69-2.72-4.27s-4.23-2.24-4.8-1.47
		C299.03,100.34,300.25,102.25,302.33,103.83z"/>
	<path class="st0" d="M279.95,118.87c-2.08-1.58-4.23-2.24-4.8-1.47c-0.58,0.78,0.64,2.69,2.72,4.27s4.23,2.24,4.8,1.47
		C283.25,122.36,282.03,120.45,279.95,118.87z"/>
	<path class="st0" d="M287.21,113.52c-2.63,1.63-4.28,3.74-3.69,4.72s3.2,0.46,5.83-1.17c2.63-1.63,4.28-3.74,3.69-4.72
		C292.45,111.37,289.84,111.9,287.21,113.52z"/>
	<path class="st0" d="M304.6,110.43c-2.91-1.01-5.57-0.96-5.94,0.13c-0.37,1.09,1.69,2.79,4.61,3.8c2.91,1.01,5.57,0.96,5.94-0.13
		C309.57,113.14,307.51,111.44,304.6,110.43z"/>
	<path class="st0" d="M285.32,109.29c0.96,0.05,1.84-2.04,1.98-4.67s-0.52-4.81-1.48-4.86c-0.95-0.05-1.84,2.04-1.98,4.67
		C283.71,107.07,284.37,109.24,285.32,109.29z"/>
	<path class="st0" d="M298.32,114.79c-0.96-0.05-1.84,2.04-1.98,4.67s0.52,4.81,1.48,4.86c0.96,0.05,1.84-2.04,1.98-4.67
		C299.94,117.02,299.28,114.84,298.32,114.79z"/>
	<path class="st0" d="M302.33,103.83c2.08,1.58,4.23,2.24,4.8,1.47c0.58-0.78-0.64-2.69-2.72-4.27s-4.23-2.24-4.8-1.47
		C299.03,100.34,300.25,102.25,302.33,103.83z"/>
	<path class="st0" d="M279.95,118.87c-2.08-1.58-4.23-2.24-4.8-1.47c-0.58,0.78,0.64,2.69,2.72,4.27s4.23,2.24,4.8,1.47
		C283.25,122.36,282.03,120.45,279.95,118.87z"/>
</g>
<g>
	<rect x="240.94" y="44.32" class="st0" width="5.64" height="6.01"/>
	<rect x="240.94" y="37.33" class="st0" width="5.64" height="6.01"/>
	<path class="st0" d="M254.56,69.89c3.44-1.5,5.84-4.93,5.84-8.92v-9.66h-5.84V69.89z"/>
	<rect x="240.94" y="30.33" class="st0" width="5.64" height="6.01"/>
	<path class="st0" d="M247.56,51.32V70.2c0.97,0.33,2.02,0.51,3.1,0.51c1.01,0,1.99-0.16,2.91-0.44V51.32
		C253.57,51.32,247.56,51.32,247.56,51.32z"/>
	<path class="st0" d="M240.94,51.32v9.66c0,3.91,2.31,7.29,5.64,8.83V51.32H240.94z"/>
	<path class="st0" d="M246.58,3.38c-2.13,0.99-3.84,2.72-4.8,4.87h4.8V3.38z"/>
	<path class="st0" d="M253.58,8.24V2.92c-0.92-0.29-1.9-0.44-2.91-0.44c-1.09,0-2.13,0.18-3.1,0.51v5.26h6.01V8.24z"/>
	<path class="st0" d="M259.55,8.24c-0.99-2.21-2.77-3.99-4.99-4.96v4.96H259.55z"/>
	<rect x="240.94" y="23.34" class="st0" width="5.64" height="6.01"/>
	<rect x="240.94" y="16.22" class="st0" width="5.64" height="6.14"/>
	<path class="st0" d="M246.58,9.23h-5.18c-0.3,0.94-0.47,1.94-0.47,2.98v3.03h5.64L246.58,9.23L246.58,9.23z"/>
	<rect x="254.56" y="44.32" class="st0" width="5.84" height="6.01"/>
	<rect x="247.56" y="16.22" class="st0" width="6.01" height="6.14"/>
	<rect x="247.56" y="37.33" class="st0" width="6.01" height="6.01"/>
	<rect x="247.56" y="30.33" class="st0" width="6.01" height="6.01"/>
	<rect x="254.56" y="37.33" class="st0" width="5.84" height="6.01"/>
	<rect x="247.56" y="9.23" class="st0" width="6.01" height="6.01"/>
	<rect x="247.56" y="23.34" class="st0" width="6.01" height="6.01"/>
	<rect x="254.56" y="16.22" class="st0" width="5.84" height="6.14"/>
	<rect x="247.56" y="44.32" class="st0" width="6.01" height="6.01"/>
	<rect x="254.56" y="23.34" class="st0" width="5.84" height="6.01"/>
	<rect x="254.56" y="30.33" class="st0" width="5.84" height="6.01"/>
	<path class="st0" d="M254.56,15.24h5.84v-3.03c0-1.04-0.16-2.04-0.47-2.98h-5.37V15.24z"/>
</g>
<path class="st0" d="M250.88,70.58L250.88,70.58c-5.9,0-10.68-4.78-10.68-10.68V41.78l0,0c5.9,0,10.68,4.78,10.68,10.68V70.58z"/>
<path class="st0" d="M250.88,70.58L250.88,70.58V52.46c0-5.9,4.78-10.68,10.68-10.68l0,0V59.9
	C261.55,65.8,256.77,70.58,250.88,70.58z"/>
<g>
	<path class="st0" d="M236.75,59.55c-7.16,7.16-7.65,18.63-7.65,21.69c-3.06,0-14.53,0.5-21.69,7.65c-0.27,0.27-0.53,0.54-0.77,0.82
		c2.38,0.8,4.53,2.36,6.05,4.6c2.18,3.22,2.56,7.13,1.39,10.54c0.12-2.48-0.53-5.02-2.02-7.24c-1.84-2.72-4.6-4.43-7.58-5.01
		c-5.19,8.23-4.7,18.75-4.7,18.75s14.15,0.67,22.47-7.64c7.16-7.16,7.65-18.63,7.65-21.69c3.06,0,14.53-0.5,21.69-7.65
		C238.21,73.08,236.52,64.06,236.75,59.55z M208.63,103.26c-0.63,0.63-1.66,0.63-2.29,0s-0.63-1.66,0-2.29
		c0.63-0.63,1.66-0.63,2.29,0C209.27,101.6,209.27,102.63,208.63,103.26z"/>
</g>
<g>
	<path class="st0" d="M372.16,174.94h-5.56c-18.29,0-33.11,14.83-33.11,33.11l0,0c0,4.66,3.78,8.43,8.43,8.43h35.14
		c4.66,0,8.43-3.78,8.43-8.43v-19.78C385.49,180.91,379.53,174.94,372.16,174.94z M368.85,199.11c-5.04,0-9.13-4.09-9.13-9.13
		c0-5.04,4.09-9.13,9.13-9.13s9.13,4.09,9.13,9.13S373.89,199.11,368.85,199.11z"/>
</g>
<g>
	<path class="st0" d="M30.31,191.42v41.28h70.87v-41.28H30.31z M75.67,221.78c-3.21,0.41-6.68,0.63-10.3,0.63
		c-16.39,0-29.68-4.56-29.68-10.18c0-2.7,3.06-5.15,8.05-6.97c0.67,0.41,1.34,0.87,1.98,1.4c3.15,2.57,5.07,5.87,5.38,8.72
		c0.23-0.19,0.45-0.4,0.64-0.63c2.18-2.67,1.06-7.29-2.4-11.09c1.76-0.39,3.64-0.72,5.63-0.97c0.23,0.17,0.47,0.35,0.7,0.54
		c3.15,2.57,5.07,5.87,5.38,8.72c0.23-0.19,0.45-0.4,0.64-0.63c1.82-2.22,1.34-5.82-0.88-9.15c1.49-0.08,3.01-0.12,4.56-0.12
		c0.62,0,1.24,0.01,1.85,0.02c2.2,2.29,3.53,4.92,3.78,7.25c0.23-0.19,0.45-0.4,0.64-0.63c1.32-1.61,1.43-3.94,0.55-6.37
		c1.19,0.1,2.35,0.21,3.48,0.36c0.69,0.09,1.36,0.18,2.02,0.29c1.96,2.18,3.14,4.62,3.38,6.81c0.23-0.19,0.45-0.4,0.64-0.63
		c1.1-1.35,1.36-3.21,0.9-5.2c7.53,1.85,12.45,4.87,12.45,8.29C95.05,216.61,86.99,220.35,75.67,221.78z"/>
</g>
</svg>
