<?xml version="1.0" encoding="utf-8"?>
<!-- Generator: Adobe Illustrator 26.3.1, SVG Export Plug-In . SVG Version: 6.00 Build 0)  -->
<svg version="1.1" id="Calque_1" xmlns="http://www.w3.org/2000/svg" xmlns:xlink="http://www.w3.org/1999/xlink" x="0px" y="0px"
	 viewBox="0 0 419.53 297.64" style="enable-background:new 0 0 419.53 297.64;" xml:space="preserve">
<style type="text/css">
	.st0{fill:#F8CA46;}
	.st1{fill:#276747;}
	.st2{fill:#B94158;}
</style>
<g>
	<path class="st0" d="M221.61,67.66c-12.02,0-22.86,5.07-30.51,13.17l20.64,31.11l48.86,13.15c1.9-4.79,2.96-10.01,2.96-15.48
		C263.57,86.45,244.79,67.66,221.61,67.66z"/>
</g>
<path class="st1" d="M255.26,133.25c2.93-18.79,8.85-36.55,17.77-53.53c-2.44-0.02-4.5,0.72-6.36,1.92
	c-1.83,1.17-3.52,2.56-5.37,3.92c0.15-0.61,0.3-1.19,0.45-1.77c-0.08-0.05-0.17-0.09-0.25-0.14c-0.47,0.78-0.96,1.56-1.42,2.34
	c-0.45,0.76-0.84,1.56-1.34,2.29c-0.18,0.26-0.68,0.55-0.91,0.47c-0.25-0.08-0.48-0.57-0.51-0.9c-0.31-3.46,0.5-6.58,3.08-9.04
	c2.76-2.64,6.18-3.34,9.86-3.14c0.37,0.02,0.75,0.05,1.22-0.13c-0.23-0.16-0.45-0.34-0.68-0.48c-3.51-2.1-7.39-2.98-11.41-3.38
	c-1.01-0.1-2.03-0.15-3.03-0.31c-0.39-0.06-0.74-0.37-1.11-0.56c0.22-0.4,0.34-0.96,0.67-1.16c0.89-0.54,1.83-1.06,2.81-1.34
	c5.36-1.54,10.16-0.5,14.35,3.23c0.16,0.14,0.33,0.27,0.5,0.4c0.09-0.05,0.19-0.1,0.28-0.16c-0.57-1.19-1.08-2.43-1.74-3.58
	c-1.51-2.64-3.55-4.86-5.71-6.98c-0.5-0.49-0.98-1.01-1.37-1.58c-0.66-0.97-0.36-1.57,0.82-1.62c1.88-0.07,3.6,0.33,4.89,1.85
	c0.1,0.12,0.22,0.23,0.34,0.33c0.05,0.04,0.11,0.06,0.23,0.13c0-0.28,0-0.52,0-0.76c0.58-0.54,3.76,2.77,4.9,4.98
	c1.13,2.19,1.45,4.56,1.81,7.04c0.28-0.5,0.56-1,0.84-1.5c1.41-2.52,3.21-4.66,5.87-5.91c3.06-1.44,6.11-1.13,9.11,0.22
	c0.14,0.06,0.32,0.14,0.4,0.26c0.23,0.35,0.66,0.82,0.56,1.06c-0.13,0.34-0.64,0.64-1.05,0.76c-1.46,0.41-2.98,0.64-4.41,1.12
	c-2.79,0.95-5.15,2.59-7.11,4.79c-0.1,0.12-0.21,0.24-0.29,0.38c-0.05,0.08-0.06,0.17-0.15,0.46c0.42-0.14,0.71-0.23,1.01-0.34
	c3.92-1.43,7.82-1.63,11.63,0.32c2.11,1.08,3.5,2.81,4.13,5.1c0.1,0.37-0.01,0.79-0.03,1.19c-0.39-0.04-0.8,0-1.15-0.13
	c-2.41-0.88-4.77-1.92-7.21-2.67c-2.11-0.65-4.31-0.58-6.41-0.18c1.95,0.7,3.99,1.3,5.91,2.16c1.96,0.87,3.68,2.12,4.95,4.25
	c-0.62-0.05-0.94-0.08-1.41-0.12c0.2,0.28,0.34,0.47,0.48,0.66c1.43,1.85,2.03,3.94,1.65,6.26c-0.19,1.17-0.71,1.38-1.61,0.62
	c-1.33-1.12-2.59-2.34-3.9-3.49c-2.43-2.14-4.96-4.17-7.88-5.63c-0.27-0.14-0.56-0.25-0.93-0.29c1.32,1.93,2.4,3.94,2.94,6.2
	c0.54,2.28,0.83,4.56-0.21,6.91c-0.27-0.29-0.46-0.5-0.79-0.86c-0.02,0.44-0.05,0.74-0.06,1.04c-0.03,1.36-0.46,2.56-1.47,3.5
	c-0.28,0.26-0.75,0.58-1.02,0.5c-0.28-0.09-0.54-0.6-0.61-0.97c-0.41-2.12-0.64-4.28-1.17-6.37c-0.68-2.7-1.59-5.34-2.41-8
	c-0.06-0.2-0.21-0.37-0.41-0.69c-0.22,0.36-0.41,0.6-0.52,0.87c-3.37,7.71-5.79,15.71-7.55,23.93c-2.36,11-3.53,22.13-3.71,33.37
	c-0.02,1.22-0.31,1.5-1.55,1.5c-5.05,0.01-10.1,0.01-15.15,0c-1.36,0-1.46-0.12-1.68-1.5c-1.28-8.09-2.41-16.2-3.89-24.26
	c-1.81-9.84-4.32-19.53-7.82-28.92c-1.68-4.51-3.81-8.85-5.75-13.26c-0.17-0.38-0.46-0.71-0.84-1.28c-0.31,0.65-0.54,1.08-0.72,1.53
	c-1.26,3.24-1.59,6.63-1.27,10.03c0.3,3.21,0.95,6.39,1.44,9.59c0.1,0.69,0.2,1.38,0.21,2.07c0,0.63-0.41,0.98-1.02,0.75
	c-1.29-0.49-2.53-1.13-3.13-2.46c-0.45-1.01-0.74-2.09-1.1-3.14c-0.1-0.28-0.16-0.58-0.46-0.85c-0.09,0.63-0.18,1.26-0.27,1.9
	c-0.09,0.02-0.17,0.05-0.26,0.07c-2.07-2.85-3.02-6.12-3.18-9.64c-0.16-3.52,0.57-6.86,2.43-9.93c-0.1-0.08-0.21-0.17-0.31-0.25
	c-1.34,1.07-2.76,2.06-4.01,3.23c-3.79,3.54-6.44,7.9-8.78,12.48c-0.22,0.42-0.46,0.84-0.75,1.21c-0.86,1.11-1.61,1.03-2.16-0.25
	c-0.87-2.02-1.24-4.15-0.94-6.33c1.04-7.71,5.41-12.79,12.53-15.65c0.48-0.19,0.98-0.35,1.47-0.53c-0.01-0.1-0.02-0.2-0.03-0.3
	c-1.76-0.04-3.53-0.22-5.28-0.08c-4.2,0.35-8.39,0.87-12.59,1.31c-0.69,0.07-1.4,0.13-2.09,0.1c-1.42-0.06-1.95-0.82-1.27-2.08
	c0.53-0.98,1.25-1.94,2.11-2.65c4.94-4.13,10.63-5.12,16.82-3.83c1.07,0.22,2.13,0.55,3.32,0.66c-0.45-0.54-0.88-1.11-1.35-1.63
	c-2.91-3.26-6.25-6.04-9.78-8.6c-0.46-0.33-0.9-0.71-1.29-1.12c-0.73-0.79-0.61-1.56,0.41-1.94c0.85-0.31,1.78-0.51,2.68-0.55
	c3.08-0.13,5.61,1.1,7.71,3.3c0.24,0.25,0.49,0.5,0.74,0.74c0.03,0.03,0.11,0.02,0.32,0.05c-0.41-0.89-0.78-1.7-1.26-2.76
	c4.91,1.89,7.59,5.63,9.86,10.03c0.41-1.05,0.7-1.91,1.07-2.74c2.29-5.07,5.81-8.9,11.13-10.86c1.71-0.63,3.5-0.94,5.33-0.49
	c1.65,0.4,2.06,1.37,0.96,2.66c-1.49,1.73-3.19,3.28-4.66,5.03c-2.09,2.47-4.05,5.04-6.06,7.58c-0.14,0.18-0.22,0.41-0.27,0.7
	c3.33-2,6.88-3.15,10.9-3.24c-0.2,0.38-0.32,0.6-0.36,0.68c1.74,0,3.52-0.19,5.25,0.04c2.44,0.33,4.58,1.47,6.31,3.27
	c0.11,0.11,0.24,0.22,0.32,0.35c0.48,0.74,1.16,1.48,0.71,2.43c-0.4,0.85-1.32,0.8-2.09,0.84c-3.17,0.19-6.35,0.21-9.5,0.55
	c-2.86,0.31-5.69,0.95-8.53,1.46c-0.39,0.07-0.76,0.24-1.12,0.6c0.45,0,0.9-0.02,1.36,0c5.88,0.3,10.63,2.55,13.56,7.89
	c1.29,2.34,1.74,4.89,1.6,7.54c-0.06,1.21-0.67,1.51-1.71,0.83c-0.79-0.52-1.53-1.14-2.24-1.76c-3.8-3.33-7.6-6.69-12.22-8.85
	c-1.71-0.8-3.57-1.29-5.37-1.89c-0.34-0.11-0.73-0.08-1.34-0.14c0.25,0.47,0.36,0.78,0.56,1.02c6.11,7.36,10.29,15.83,14.06,24.54
	c3.17,7.32,5.83,14.84,7.9,22.54c1.27,4.71,2.21,9.52,3.29,14.28C255.06,132.4,255.16,132.82,255.26,133.25z"/>
<g>
	<path class="st2" d="M187.4,60.2c-1,1.74-1.82,3.22-2.68,4.68c-0.4,0.67-0.38,1.12,0.45,1.37c4.58,1.34,8.23,4.15,11.57,7.41
		c7.48,7.3,12.9,16.02,17.26,25.43c1.46,3.16,2.85,6.39,3.88,9.71c0.81,2.63,0.15,4.42-2.37,5.01c-1.71,0.4-2.87-0.06-3.62-1.68
		c-0.1-0.22-0.26-0.41-0.37-0.58c-0.18,0.04-0.29,0.03-0.34,0.08c-1.93,1.98-3.17,2.19-5.18,0.26c-1.64-1.58-2.85-2.66-5.31-1.15
		c-1.51,0.93-3.67,0.32-5.25-0.7c-2.08-1.35-3.93-1.41-6.16-0.2c-2.57,1.4-5.14,1.05-7.28-1.21c-0.2-0.22-0.92-0.33-1.05-0.18
		c-2.19,2.47-4.78,1.63-7.13,0.62c-1.95-0.84-3.59-0.71-5.51-0.08c-1.48,0.49-3.21,0.7-4.73,0.45c-2.46-0.4-4.66-0.19-6.79,1.1
		c-1.89,1.14-3.77,1.38-5.79,0.1c-0.52-0.33-1.64-0.11-2.27,0.24c-0.93,0.52-1.65,1.41-2.51,2.08c-1.39,1.08-2.64,0.56-3.15-1.15
		c-0.47-1.58-0.08-2.95,0.54-4.41c4.05-9.55,9.27-18.39,15.89-26.38c4.6-5.55,9.7-10.54,16.2-13.88c0.99-0.51,2.03-0.92,3.14-1.42
		c-1.03-1.86-1.99-3.59-3.07-5.53C179.74,60.2,183.4,60.2,187.4,60.2z"/>
	<path class="st2" d="M235.56,100.77c-0.51-1-0.93-1.83-1.45-2.85c2.11,0,3.99,0,6.11,0c-0.49,0.96-0.93,1.83-1.4,2.76
		c0.17,0.15,0.31,0.33,0.49,0.41c5.43,2.51,9.34,6.74,12.54,11.59c2.27,3.44,4.13,7.17,6.06,10.84c0.4,0.77,0.45,1.85,0.33,2.75
		c-0.12,0.89-0.89,1.27-1.64,0.52c-1.09-1.1-2.11-1.62-3.7-0.83c-0.56,0.27-1.53-0.37-2.33-0.52c-1.04-0.2-2.09-0.34-3.14-0.47
		c-0.98-0.12-2-0.07-2.95-0.31c-1.05-0.27-2-0.43-3.03,0.06c-1.42,0.66-2.86,0.82-4.19-0.51c-1.65,1.81-3.45,1.58-5.36,0.53
		c-0.34-0.19-0.97-0.14-1.35,0.05c-1.61,0.81-3.17,1.45-4.97,0.44c-0.23-0.13-0.87,0.22-1.19,0.5c-1.65,1.46-1.82,1.51-3.69,0.59
		c-0.3,0.28-0.56,0.65-0.92,0.84c-1.24,0.65-2.78-0.21-2.63-1.62c0.14-1.31,0.58-2.63,1.09-3.86c2.61-6.31,5.95-12.18,11.04-16.84
		c1.55-1.41,3.53-2.34,5.32-3.49C234.88,101.15,235.18,100.99,235.56,100.77z"/>
	<path class="st2" d="M120.42,95.9c2.04,0,3.69-0.02,5.34,0.01c0.72,0.01,0.71,0.43,0.45,0.99c-0.94,2.01-0.92,1.99,1.02,3.08
		c4.72,2.67,8.29,6.58,11.17,11.05c2.26,3.5,4.08,7.3,6.06,10.98c0.22,0.4,0.39,0.94,0.32,1.37c-0.1,0.59-0.31,1.34-0.73,1.64
		c-0.27,0.19-1.13-0.19-1.54-0.54c-0.86-0.73-1.57-1.21-2.78-0.57c-0.57,0.3-1.6,0.14-2.24-0.18c-1.35-0.67-2.66-0.92-4.16-0.73
		c-0.92,0.11-1.88-0.25-2.83-0.31c-0.8-0.05-1.63-0.11-2.39,0.07c-1.39,0.34-2.73,1.06-4.08-0.13c-0.16-0.14-0.74,0.03-0.99,0.22
		c-1.26,1-2.59,0.99-3.93,0.3c-1.02-0.53-1.87-0.59-2.9,0.04c-1.22,0.73-2.59,1.13-3.96,0.23c-0.79-0.52-1.18,0.08-1.65,0.52
		c-1.47,1.38-1.96,1.44-3.3,0.5c-0.61,0.36-1.16,0.91-1.78,1.02c-1.49,0.26-2.52-1.25-1.97-2.85c1.45-4.28,3.43-8.3,5.88-12.1
		c2.12-3.28,4.48-6.38,7.6-8.77c1.23-0.94,2.64-1.69,4.06-2.33c0.84-0.38,0.82-0.75,0.48-1.38
		C121.23,97.44,120.92,96.84,120.42,95.9z"/>
	<path class="st2" d="M163.12,129.27c0-5.24,0.02-10.49-0.02-15.73c-0.01-1.08,0.19-1.46,1.45-1.47c1.58-0.01,3.18-0.42,4.71-0.86
		c1.27-0.36,2.4-0.44,3.68,0.05c1.45,0.56,2.99,0.92,4.52,1.21c1.23,0.23,2.33-0.22,3.14-1.23c0.49-0.6,0.93-0.69,1.49-0.07
		c2.2,2.42,4.79,2.33,7.55,1.14c0.24-0.1,0.51-0.18,0.7-0.34c2.01-1.61,3.59-0.11,5.21,0.77c0.3,0.16,0.45,0.84,0.45,1.27
		c0.02,10.49,0.01,18.98,0.03,29.47c0,1.18-0.67,1.23-1.53,1.2c-0.82-0.03-1.65,0.17-1.68-1.17c-0.13-4.78-0.66-7.5-2.39-12.01
		c-0.98-2.54-2.19-4.94-4.12-6.93c-3.21-3.31-7.09-3.42-10.37-0.17c-3.03,2.99-4.59,6.81-5.4,10.87c-0.65,3.28-0.88,3.65-1.17,6.99
		c-0.09,1.06-0.35,1.5-1.44,1.43c-1.13-0.07-2.28-0.07-3.41,0c-1.08,0.07-1.43-0.32-1.42-1.42
		C163.15,136.94,163.12,134.6,163.12,129.27z"/>
	<path class="st2" d="M237.34,125.6c1.29,1.55,2.81,0.91,4.39,0.43c0.72-0.22,1.57-0.11,2.35-0.06c1.12,0.06,2.23,0.18,3.34,0.29
		c0.85,0.08,1.71,0.11,2.54,0.28c1.35,0.28,2.68,0.65,4.35,1.07c0.05,0.92,0.21,2.3,0.16,3.67c-0.16,4.14-0.37,6.28-0.65,10.41
		c-0.11,1.7-0.32,1.79-2.02,1.79c-1.97,0-3.93,1.96-5.9,2.02c-1.02,0.03-1.38-0.32-1.4-1.35c-0.08-3.08-0.61-6.08-2.08-8.84
		c-0.08-0.15-0.15-0.31-0.24-0.46c-2.39-4.01-5.97-3.98-8.28,0.07c-1.51,2.64-2.09,5.53-2.23,8.53c-0.1,2.04-0.11,2.04-2.08,2.04
		c-1.97,0-3.93-0.03-5.9,0.01c-0.82,0.02-1.34-0.17-1.4-1.1c-0.28-5.01-0.58-10.01-0.87-15.02c-0.04-0.67,0.25-0.93,0.94-1.13
		c0.75-0.22,1.37-0.85,2.08-1.24c0.37-0.2,0.96-0.49,1.22-0.34c1.66,0.96,3.09,0.32,4.6-0.37c0.49-0.23,1.21-0.31,1.7-0.13
		C234.8,127.23,234.79,127.26,237.34,125.6z"/>
	<path class="st2" d="M140.67,124.87c0.11,2.84,0.36,5.32,0.26,7.78c-0.13,3.18-0.57,6.34-0.8,9.51c-0.08,1.11-0.61,1.35-1.61,1.32
		c-2.05-0.06-4.11-0.07-6.16,0c-1.06,0.04-1.42-0.3-1.47-1.39c-0.14-3.11-0.65-6.16-2.23-8.93c-0.96-1.69-2.18-3.25-4.28-3.21
		c-2.15,0.04-3.37,1.66-4.3,3.41c-1.44,2.71-2.05,5.65-2.07,8.7c-0.01,1.08-0.33,1.45-1.42,1.42c-2.23-0.07-4.46-0.04-6.68-0.01
		c-0.88,0.01-1.28-0.34-1.33-1.21c-0.24-4.75-0.5-9.5-0.75-14.25c-0.05-0.85,0.12-1.44,1.16-1.7c0.7-0.17,1.25-0.9,1.91-1.31
		c0.33-0.2,0.88-0.45,1.11-0.31c1.58,0.97,3.05,0.52,4.46-0.27c0.77-0.43,1.4-0.51,2.19-0.07c1.52,0.85,3.03,1.09,4.47-0.26
		c0.18-0.17,0.73-0.22,0.91-0.08c1.16,0.96,2.39,0.7,3.58,0.2c1.11-0.47,2.14-0.42,3.29-0.1c0.93,0.26,1.97,0.15,2.95,0.26
		c0.97,0.1,2,0.1,2.88,0.45C137.95,125.32,139.06,125.92,140.67,124.87z"/>
	<path class="st2" d="M210.63,115.17c0.09,1.65,0.25,3.03,0.22,4.41c-0.14,6.55-0.27,13.1-0.56,19.64
		c-0.09,2.17-0.59,2.32-1.01,4.46c-0.08,0.38-0.68,0.93-1.06,0.94c-2.18,0.09-4.37,0.08-6.55,0c-0.33-0.01-0.73-0.54-0.91-0.93
		c-0.15-0.32-0.04-0.77-0.04-1.17c0-9.75,0-17.49,0-27.24c0-1.71,0.7-2.73,2.3-3.11c0.32-0.08,0.81,0.2,1.1,0.45
		c0.63,0.53,1.16,1.18,1.78,1.73C207.18,115.49,208.58,116.18,210.63,115.17z"/>
	<path class="st2" d="M151.18,113.21c2.56,1.6,4.72,0.3,7.09-0.89c0.06,0.67,0.13,1.1,0.13,1.52c0.01,9.79-0.01,19.59,0.03,29.38
		c0.01,1.14-0.34,1.59-1.55,1.46c-0.56-0.06-1.13-0.01-1.7-0.01c-2.61,0-2.6,0-2.96-2.5c-1.36-9.28-1.57-18.61-1.21-27.95
		C151,113.95,151.09,113.68,151.18,113.21z"/>
</g>
<g>
	<g>
		<g>
			<path class="st1" d="M144.21,156.56c1.07-3.4,1.72-5.4,4.75-5.4c2.24,0,4.05,1.91,4.05,3.73c0,1.21-0.28,1.91-1.16,4.33
				l-6.66,18.31c-1.54,4.19-2.14,5.82-3.59,6.85c-1.12,0.79-2.38,1.26-3.73,1.26c-1.77,0-3.68-0.84-4.61-2
				c-0.98-1.26-1.44-2.33-2.79-6.05l-6.62-18.17c-0.84-2.33-1.21-3.21-1.21-4.38c0-1.77,1.63-3.87,4.19-3.87
				c3.03,0,3.68,2.05,4.84,5.54l6.34,19.38L144.21,156.56z"/>
			<path class="st1" d="M164.39,179.11c0,2.84-0.05,4.29-1.07,5.31c-0.56,0.56-1.54,1.21-2.89,1.21c-1.03,0-2.1-0.42-2.89-1.21
				c-1.03-1.02-1.03-2.52-1.03-5.31v-12.2c0-2.79,0-4.24,1.03-5.26c0.7-0.7,1.68-1.26,2.89-1.26c0.84,0,3.35,0.42,3.82,3.21
				c0.19,1.03,0.14,1.4,0.14,3.31V179.11z M160.43,158.42c-2,0-3.63-1.63-3.63-3.63c0-2,1.63-3.63,3.63-3.63
				c2,0,3.63,1.63,3.63,3.63C164.06,156.79,162.43,158.42,160.43,158.42z"/>
			<path class="st1" d="M178.41,179.11c0,2.84,0,4.29-1.02,5.31c-0.61,0.61-1.58,1.21-2.89,1.21c-1.03,0-2.1-0.42-2.89-1.21
				c-1.03-1.02-1.07-2.52-1.07-5.31v-21.43c0-2.84,0.05-4.24,1.07-5.31c0.6-0.56,1.58-1.21,2.89-1.21c1.02,0,2.1,0.42,2.89,1.21
				c1.02,1.03,1.02,2.52,1.02,5.31V179.11z"/>
			<path class="st1" d="M192.48,179.11c0,2.84,0,4.29-1.02,5.31c-0.61,0.61-1.58,1.21-2.89,1.21c-1.03,0-2.1-0.42-2.89-1.21
				c-1.03-1.02-1.07-2.52-1.07-5.31v-21.43c0-2.84,0.05-4.24,1.07-5.31c0.6-0.56,1.58-1.21,2.89-1.21c1.02,0,2.1,0.42,2.89,1.21
				c1.02,1.03,1.02,2.52,1.02,5.31V179.11z"/>
			<path class="st1" d="M211.4,169.98c1.3-0.28,1.68-0.51,2.28-0.75c-0.09-2.1-0.19-3.59-3.73-3.59c-1.54,0-3.68,0.32-4.7,1.96
				c-0.89,1.4-1.63,2.52-3.45,2.52c-1.26,0-3.21-0.84-3.21-2.84c0-2.42,1.86-4.29,3.26-5.12c1.91-1.17,3.96-1.77,8.06-1.77
				c8.52,0,11.41,2.38,11.41,9.36v6.62c0,1.12,0.05,2,0.47,3.26c0.7,2.14,0.79,2.1,0.79,2.89c0,1.54-1.54,3.12-3.77,3.12
				c-2.14,0-3.07-1.3-4.05-3.77c-2.7,2.28-5.73,3.77-9.08,3.77c-6.1,0-8.29-4.05-8.29-7.13c0-5.12,4.66-6.38,6.52-6.8L211.4,169.98z
				 M208.98,174.91c-2.47,0.79-3.73,1.26-3.73,3.07c0,1.3,1.12,2.84,3.21,2.84c1.26,0,3.59-0.56,4.66-2.75
				c0.65-1.3,0.61-2.61,0.56-4.42C213.03,173.94,209.72,174.68,208.98,174.91z"/>
			<path class="st1" d="M251,182.51c0,7.73-1.82,12.34-12.53,12.34c-3.31,0-6.43-0.37-9.04-1.91c-2.61-1.54-2.84-3.03-2.84-4.05
				c0-2,1.72-3.07,3.31-3.07c1.72,0,2.66,0.98,3.91,2.28c0.98,0.98,2.1,1.44,4.24,1.44c4.89,0,4.99-2.14,5.08-5.92
				c0.05-1.26,0-1.82-0.05-2.56c-0.75,1.03-2.79,3.68-7.17,3.68c-6.15,0-9.92-5.26-9.92-12.53c0-4.94,1.4-7.13,2.61-8.52
				c1.96-2.24,4.42-3.31,7.36-3.31c4.66,0,6.89,2.98,7.73,4.1c0.23-1.72,0.33-1.91,0.65-2.42c0.79-1.26,1.91-1.68,2.98-1.68
				c0.79,0,2.75,0.28,3.4,2.42c0.23,0.84,0.28,1.63,0.28,4.15V182.51z M238.47,178.97c2.66,0,4.75-2.24,4.75-6.06
				c0-4.33-2-6.62-4.75-6.62c-4.61,0-4.61,5.4-4.61,6.48C233.86,175.75,234.84,178.97,238.47,178.97z"/>
			<path class="st1" d="M263.26,175.15c0.09,4.43,3.59,5.36,5.12,5.36c2.56,0,4.52-1.54,5.36-2.14c0.98-0.7,1.91-1.49,3.17-1.49
				c1.72,0,3.03,1.44,3.03,2.79c0,2.75-3.91,5.96-11.23,5.96c-10.16,0-13.46-6.38-13.46-12.58c0-5.22,2.75-12.67,12.76-12.67
				c9.18,0,11.97,6.89,11.97,10.25c0,0.98-0.33,3.21-2.56,4.1c-0.93,0.37-2.79,0.42-3.82,0.42H263.26z M272.39,170.95
				c0.09-3.12-1.86-5.31-4.66-5.31c-3.91,0-4.33,4.15-4.47,5.31H272.39z"/>
			<path class="st1" d="M145.84,202.94c0-2.89,0-4.33,1.07-5.4c0.56-0.56,1.54-1.26,2.89-1.26c1.07,0,2.19,0.47,2.98,1.21
				c1.03,1.07,1.03,2.61,1.03,5.45v19.29c0,4.47,0,5.73-1.72,7.27c-0.61,0.51-1.68,1.26-3.45,1.26c-2.75,0-3.59-1.35-6.1-5.22
				l-9.92-15.37v13.97c0,2.89,0,4.33-1.03,5.36c-0.6,0.61-1.58,1.26-2.93,1.26c-1.07,0-2.19-0.42-2.93-1.21
				c-1.02-1.12-1.07-2.56-1.07-5.4v-19.47c0-4.38,0-5.64,1.72-7.13c0.56-0.51,1.63-1.26,3.35-1.26c2.66,0,3.54,1.35,5.96,5.13
				l10.16,15.79V202.94z"/>
			<path class="st1" d="M160.29,212.07c0-2.84,0-4.28,1.03-5.31c0.56-0.56,1.49-1.26,2.84-1.26c1.07,0,2.14,0.47,2.93,1.21
				c1.02,1.07,1.07,2.56,1.07,5.36v6.15c0,2.89,0.05,6.48,3.54,6.48c1.68,0,3.07-0.93,3.82-2.24c0.61-1.03,0.65-2.84,0.65-5.5v-4.94
				c0-2.79,0.05-4.24,1.07-5.26c0.56-0.56,1.54-1.26,2.84-1.26c1.07,0,2.14,0.47,2.89,1.21c1.07,1.07,1.07,2.52,1.07,5.31v12.67
				c0,2.61,0,3.96-0.98,4.94c-0.6,0.61-1.49,1.12-2.66,1.12c-0.51,0-3.73-0.09-3.68-4.33c-0.93,1.17-3.35,4.19-8.62,4.19
				c-2.79,0-5.73-1.4-6.8-3.77c-0.93-2.1-1.03-3.91-1.03-5.5V212.07z"/>
			<path class="st1" d="M198.92,221.11c0,2.28,0,3.73,1.86,3.73c1.44,0,2.56-0.47,3.35-0.47c1.35,0,2.42,1.17,2.42,2.56
				c0,1.72-1.21,2.56-2.52,3.03c-2,0.7-4.01,0.79-5.36,0.79c-7.5,0-7.64-4.33-7.64-9.32v-9.74c-1.17-0.05-2.24-0.14-2.79-0.7
				c-0.42-0.42-0.93-1.12-0.93-2.1c0-1.16,0.7-2.14,1.44-2.47c0.79-0.42,1.68-0.47,2.28-0.42v-3.45c0-2.38,0.05-3.31,0.56-4.33
				c0.51-1.03,1.86-1.96,3.4-1.96c1.58,0,2.89,0.93,3.4,1.96c0.42,0.84,0.51,1.63,0.51,3.49v4.33c2.47,0,3.07,0,3.91,0.37
				c0.65,0.28,1.4,1.26,1.4,2.42c0,1.07-0.61,2.14-1.4,2.47c-0.84,0.42-1.17,0.42-3.91,0.42V221.11z"/>
			<path class="st1" d="M215.74,224.23c0,2.84,0,4.29-1.02,5.31c-0.56,0.56-1.54,1.21-2.89,1.21c-1.07,0-2.14-0.42-2.89-1.21
				c-1.07-1.02-1.07-2.52-1.07-5.31v-12.67c0-2.66,0-3.96,0.98-4.94c0.6-0.61,1.3-1.12,2.7-1.12c0.61,0,3.63,0,3.63,4.24
				c1.72-3.26,3.4-4.24,5.68-4.24c1.16,0,6.29,0.79,6.29,4.19c0,2-1.72,3.26-3.07,3.26c-0.65,0-1.4-0.23-1.68-0.33
				c-0.37-0.14-1.91-0.7-2.79-0.7c-0.42,0-2.38,0.28-3.21,3.07c-0.61,1.96-0.65,5.31-0.65,7.41V224.23z"/>
			<path class="st1" d="M238.8,224.23c0,2.84-0.05,4.29-1.07,5.31c-0.56,0.56-1.54,1.21-2.89,1.21c-1.03,0-2.1-0.42-2.89-1.21
				c-1.03-1.02-1.03-2.52-1.03-5.31v-12.2c0-2.79,0-4.24,1.03-5.26c0.7-0.7,1.68-1.26,2.89-1.26c0.84,0,3.35,0.42,3.82,3.21
				c0.19,1.03,0.14,1.4,0.14,3.31V224.23z M234.84,203.55c-2,0-3.63-1.63-3.63-3.63s1.63-3.63,3.63-3.63c2,0,3.63,1.63,3.63,3.63
				S236.84,203.55,234.84,203.55z"/>
			<path class="st1" d="M253.76,221.11c0,2.28,0,3.73,1.86,3.73c1.44,0,2.56-0.47,3.35-0.47c1.35,0,2.42,1.17,2.42,2.56
				c0,1.72-1.21,2.56-2.52,3.03c-2,0.7-4.01,0.79-5.36,0.79c-7.5,0-7.64-4.33-7.64-9.32v-9.74c-1.17-0.05-2.24-0.14-2.79-0.7
				c-0.42-0.42-0.93-1.12-0.93-2.1c0-1.16,0.7-2.14,1.44-2.47c0.79-0.42,1.68-0.47,2.28-0.42v-3.45c0-2.38,0.05-3.31,0.56-4.33
				c0.51-1.03,1.86-1.96,3.4-1.96c1.58,0,2.89,0.93,3.4,1.96c0.42,0.84,0.51,1.63,0.51,3.49v4.33c2.47,0,3.07,0,3.91,0.37
				c0.65,0.28,1.4,1.26,1.4,2.42c0,1.07-0.61,2.14-1.4,2.47c-0.84,0.42-1.17,0.42-3.91,0.42V221.11z"/>
			<path class="st1" d="M270.81,224.23c0,2.84-0.05,4.29-1.07,5.31c-0.56,0.56-1.54,1.21-2.89,1.21c-1.03,0-2.1-0.42-2.89-1.21
				c-1.03-1.02-1.03-2.52-1.03-5.31v-12.2c0-2.79,0-4.24,1.03-5.26c0.7-0.7,1.68-1.26,2.89-1.26c0.84,0,3.35,0.42,3.82,3.21
				c0.19,1.03,0.14,1.4,0.14,3.31V224.23z M266.85,203.55c-2,0-3.63-1.63-3.63-3.63s1.63-3.63,3.63-3.63c2,0,3.63,1.63,3.63,3.63
				S268.85,203.55,266.85,203.55z"/>
			<path class="st1" d="M288.65,205.5c9.27,0,13.18,6.52,13.18,12.53c0,6.01-3.91,12.72-13.18,12.72c-7.92,0-13.14-5.08-13.14-12.76
				C275.52,212.49,279.06,205.5,288.65,205.5z M288.7,224.98c2.75,0,5.26-2.05,5.26-6.8c0-3.54-1.54-6.89-5.26-6.89
				c-3.68,0-5.31,3.35-5.31,6.71C283.39,221.06,284.51,224.98,288.7,224.98z"/>
			<path class="st1" d="M330.16,224.23c0,2.84,0,4.29-1.03,5.31c-0.51,0.51-1.49,1.21-2.84,1.21c-1.07,0-2.14-0.42-2.93-1.21
				c-1.02-1.02-1.07-2.52-1.07-5.31v-6.85c0-2.38,0.05-5.82-3.59-5.82c-1.49,0-3.35,0.79-4.1,3.17c-0.28,0.89-0.33,3.17-0.33,4.19
				v5.31c0,2.19,0.37,6.52-3.96,6.52c-3.87,0-3.91-3.35-3.91-6.52v-12.67c0-2.66,0-3.96,0.93-4.94c0.65-0.61,1.12-1.12,2.75-1.12
				c0.51,0,3.68,0.14,3.59,4.29c2.14-2.79,4.75-4.29,8.2-4.29c2.33,0,5.92,0.61,7.5,4.43c0.79,1.86,0.79,4.75,0.79,5.96V224.23z"/>
		</g>
	</g>
	<g>
		<g>
			<path class="st1" d="M287.31,196.65c-1.18,0-1.32-1.08-1.32-1.49c-0.44,0.54-1.2,1.49-2.81,1.49c-2.13,0-3.66-1.83-3.66-4.67
				c0-2.56,1.25-4.5,3.71-4.5c1.44,0,2.18,0.73,2.54,1.13v-2.1c0-1.02,0-1.56,0.39-1.95c0.27-0.27,0.68-0.44,1.05-0.44
				c0.49,0,0.83,0.24,1.05,0.46c0.37,0.37,0.37,0.9,0.37,1.93v7.94C288.63,195.56,288.62,196.65,287.31,196.65z M284.05,189.62
				c-1.56,0-1.66,1.81-1.66,2.42c0,0.37,0.02,2.46,1.66,2.46c0.32,0,1.76-0.12,1.76-2.44C285.81,191.69,285.81,189.62,284.05,189.62
				z"/>
			<path class="st1" d="M293.33,192.84c0.03,1.61,1.3,1.95,1.86,1.95c0.93,0,1.64-0.56,1.95-0.78c0.36-0.25,0.69-0.54,1.15-0.54
				c0.63,0,1.1,0.52,1.1,1.02c0,1-1.42,2.17-4.08,2.17c-3.69,0-4.89-2.32-4.89-4.57c0-1.9,1-4.61,4.64-4.61
				c3.34,0,4.35,2.51,4.35,3.72c0,0.36-0.12,1.17-0.93,1.49c-0.34,0.14-1.02,0.15-1.39,0.15H293.33z M296.65,191.32
				c0.03-1.13-0.68-1.93-1.69-1.93c-1.42,0-1.57,1.51-1.63,1.93H296.65z"/>
			<path class="st1" d="M309.3,194.28c0,1.03,0,1.56-0.37,1.93c-0.22,0.22-0.58,0.44-1.05,0.44c-0.37,0-0.76-0.15-1.05-0.44
				c-0.37-0.37-0.39-0.91-0.39-1.93v-7.79c0-1.03,0.02-1.54,0.39-1.93c0.22-0.2,0.58-0.44,1.05-0.44c0.37,0,0.76,0.15,1.05,0.44
				c0.37,0.37,0.37,0.91,0.37,1.93V194.28z"/>
			<path class="st1" d="M316.18,190.96c0.47-0.1,0.61-0.18,0.83-0.27c-0.03-0.76-0.07-1.3-1.35-1.3c-0.56,0-1.34,0.12-1.71,0.71
				c-0.32,0.51-0.59,0.91-1.25,0.91c-0.46,0-1.17-0.3-1.17-1.03c0-0.88,0.68-1.56,1.19-1.86c0.69-0.42,1.44-0.64,2.93-0.64
				c3.1,0,4.15,0.86,4.15,3.4v2.4c0,0.41,0.02,0.73,0.17,1.19c0.25,0.78,0.29,0.76,0.29,1.05c0,0.56-0.56,1.13-1.37,1.13
				c-0.78,0-1.12-0.47-1.47-1.37c-0.98,0.83-2.08,1.37-3.3,1.37c-2.22,0-3.01-1.47-3.01-2.59c0-1.86,1.69-2.32,2.37-2.47
				L316.18,190.96z M315.29,192.75c-0.9,0.29-1.35,0.46-1.35,1.12c0,0.47,0.41,1.03,1.17,1.03c0.46,0,1.3-0.2,1.69-1
				c0.24-0.47,0.22-0.95,0.2-1.61C316.77,192.4,315.57,192.67,315.29,192.75z"/>
		</g>
	</g>
</g>
<g>
	<g>
		<path class="st1" d="M330.66,153.01c-10.87-2.11-11.71-3.12-27.23-6.75c-28-6.56-53.72-2.09-65.62,0.82l9.59,3.82
			c0.26,0.61,0.41,0.96,0.67,1.58l-1.42,3.51l-1.07-0.43c-27.84-10.83-76.77-9.48-77.27-9.46l-0.11,0l-34.79-2.1
			c-18.28-1.33-30.17,2.9-35.53,5.43c-2.56,1.22-5.35,1.88-8.19,2.04h0c-2.75,0.15-3.55-3.7-0.96-4.64
			c11.49-4.15,28.84-8.99,45-7.82l34.53,2.08c1.33-0.04,13.74-0.32,29.13,0.69c10.9,0.71,20.64,1.87,29.16,3.46l2.65-0.93
			c1.44-0.5,35.63-12.22,75.36-2.92c15.71,3.68,29.38,7.44,40.41,8.64C346.7,150.22,347.2,156.21,330.66,153.01z"/>
	</g>
</g>
<g>
	<path class="st1" d="M273.36,128c5.46,0,10.93,0,16.39,0c1.42,0,1.44,0.01,1.17,1.43c-0.63,3.32-1.27,6.65-1.91,9.97
		c-0.23,1.19-0.98,1.89-2.16,2.1c-0.49,0.09-0.99,0.11-1.49,0.11c-7.92,0-15.85,0-23.77,0c-3.04,0-3.55-0.41-4.15-3.39
		c-0.59-2.94-1.17-5.88-1.73-8.83c-0.25-1.35-0.21-1.38,1.15-1.38C262.36,128,267.86,128,273.36,128z M268.49,134.46
		c0-0.96,0.09-1.93-0.04-2.87c-0.05-0.41-0.54-0.76-0.83-1.14c-0.28,0.35-0.79,0.7-0.8,1.06c-0.08,1.95-0.08,3.9,0.01,5.85
		c0.02,0.35,0.55,0.68,0.84,1.02c0.27-0.35,0.73-0.69,0.78-1.07C268.56,136.38,268.49,135.42,268.49,134.46z M279.86,134.52
		c0-0.96,0.08-1.92-0.04-2.86c-0.05-0.42-0.51-0.8-0.79-1.19c-0.3,0.37-0.83,0.73-0.85,1.12c-0.09,1.91-0.08,3.83,0,5.74
		c0.02,0.37,0.51,0.72,0.79,1.07c0.3-0.37,0.79-0.71,0.85-1.12C279.95,136.37,279.86,135.44,279.86,134.52z M272.51,134.43
		c0,1-0.07,2,0.04,2.99c0.04,0.35,0.49,0.65,0.75,0.98c0.28-0.31,0.79-0.61,0.8-0.93c0.07-2.03,0.07-4.07,0-6.1
		c-0.01-0.31-0.53-0.61-0.81-0.92c-0.26,0.33-0.71,0.63-0.74,0.98C272.45,132.42,272.51,133.43,272.51,134.43z M261.14,134.38
		C261.15,134.38,261.15,134.38,261.14,134.38c0.01,1-0.06,2,0.04,2.99c0.04,0.35,0.47,0.67,0.72,1c0.3-0.33,0.85-0.64,0.87-0.98
		c0.09-1.95,0.09-3.92,0.01-5.87c-0.01-0.37-0.52-0.71-0.8-1.07c-0.28,0.39-0.74,0.75-0.8,1.17
		C261.06,132.53,261.14,133.46,261.14,134.38z M285.49,134.49c0-1,0.07-2-0.04-2.99c-0.04-0.38-0.52-0.7-0.79-1.05
		c-0.27,0.36-0.76,0.71-0.78,1.08c-0.08,1.95-0.07,3.91,0.01,5.87c0.01,0.34,0.48,0.66,0.74,0.99c0.29-0.34,0.78-0.66,0.82-1.03
		C285.57,136.42,285.49,135.45,285.49,134.49z"/>
	<path class="st1" d="M273.26,126.29c-6,0-12.01,0-18.01,0c-1.35,0-2.08-0.5-2.29-1.48c-0.3-1.45,0.52-2.49,2.06-2.51
		c2.62-0.03,5.23-0.01,7.85-0.01c9.47,0,18.94,0,28.4,0c1.63,0,2.42,0.64,2.45,1.95c0.03,1.3-0.74,2.04-2.22,2.05
		c-4.27,0.02-8.54,0.01-12.82,0.01C276.88,126.29,275.07,126.29,273.26,126.29C273.26,126.29,273.26,126.29,273.26,126.29z"/>
	<path class="st1" d="M286.27,120.42c0.51-1.34,0.91-2.53,1.43-3.68c0.11-0.25,0.59-0.37,0.92-0.5c0.85-0.32,1.75-0.55,2.56-0.95
		c0.25-0.12,0.28-0.69,0.41-1.06c-0.4-0.11-0.82-0.35-1.19-0.29c-0.54,0.08-1.04,0.39-1.56,0.6c-0.1-0.07-0.2-0.14-0.3-0.21
		c0.15-0.59,0.39-1.18,0.44-1.79c0.06-0.78,1.05-1.9-0.28-2.26c-1.22-0.33-1.05,1.06-1.33,1.75c-0.44,1.13-0.75,2.31-1.11,3.46
		c-0.13,0.04-0.27,0.08-0.4,0.12c-0.51-0.57-0.99-1.18-1.55-1.69c-0.32-0.29-0.78-0.42-1.17-0.62c-0.1,0.47-0.45,1.1-0.27,1.39
		c0.48,0.76,1.11,1.47,1.82,2.03c0.66,0.52,0.91,0.98,0.51,1.74c-0.18,0.34-0.32,0.7-0.43,1.07c-0.3,1.09-1.13,1.05-2.01,1.06
		c-0.91,0.01-1-0.58-1.19-1.24c-0.3-1.07-0.67-2.13-1.09-3.15c-1.22-2.95,0.77-6.03,3.9-5.92c0.65,0.02,0.89-0.19,0.99-0.79
		c0.2-1.24,0.84-2.22,1.88-2.92c1.95-1.3,4.29-0.23,4.55,2.1c0.06,0.53-0.07,1.08-0.02,1.61c0.03,0.34,0.13,0.78,0.36,0.97
		c1.96,1.6,2.29,3.86,0.74,5.85c-0.48,0.61-0.63,1.09-0.34,1.86c0.48,1.28,0.16,1.64-1.22,1.64c-1.23,0-2.46,0.01-3.69-0.01
		C287.21,120.58,286.82,120.49,286.27,120.42z"/>
	<path class="st1" d="M269.93,115.36c-0.58-1.87-2.34-3.2-1.53-5.53c0.63-1.8,0.77-3.76,1.23-5.63c0.67-2.72,2.9-3.79,5.5-2.74
		c2.33,0.94,3.76,2.99,3.57,5.5c-0.13,1.71-0.56,3.41-0.93,5.09c-0.06,0.26-0.62,0.65-0.83,0.59c-2.78-0.77-4.89,0.19-6.57,2.39
		C270.3,115.12,270.19,115.17,269.93,115.36z M276.86,109.54c-0.07-0.25-0.06-0.38-0.13-0.46c-1.43-1.65-2.86-3.31-4.34-4.92
		c-0.13-0.14-0.77-0.06-0.89,0.12c-0.18,0.25-0.27,0.82-0.11,1.02c1.35,1.63,2.75,3.21,4.18,4.77c0.15,0.16,0.6,0.19,0.83,0.09
		C276.62,110.05,276.74,109.71,276.86,109.54z M271.91,111.85c0.42-0.68,0.85-1.15,0.77-1.27c-0.48-0.68-1.07-1.28-1.63-1.9
		c-0.27,0.29-0.83,0.75-0.77,0.86C270.68,110.25,271.21,110.89,271.91,111.85z"/>
	<path class="st1" d="M270.39,120.42c-0.6,0.08-0.97,0.16-1.33,0.16c-4.31,0.01-8.62-0.02-12.93,0.03
		c-1.06,0.01-1.53-0.43-1.78-1.38c-0.27-1.03,0.35-1.45,1.12-1.68c1.02-0.31,2.07-0.69,3.12-0.72c2.9-0.09,5.3-1.16,7.27-3.24
		c0.4-0.42,0.86-0.86,1.25-0.07C268.21,115.74,269.24,118,270.39,120.42z"/>
	<path class="st1" d="M254.29,115.79c0.15-1.38,0.27-2.81,0.49-4.22c0.04-0.25,0.44-0.52,0.73-0.66c1.52-0.72,3.05-1.44,4.61-2.07
		c0.36-0.15,0.93-0.13,1.25,0.07c1.1,0.69,2.12,1.51,3.19,2.25c0.54,0.38,0.63,0.85,0.1,1.21c-1.28,0.87-2.53,1.97-3.96,2.41
		C258.73,115.38,256.59,115.45,254.29,115.79z"/>
	<path class="st1" d="M276.09,120.59c-0.54,0-1.07,0-1.61,0c-2.27,0-2.72-0.28-3.23-2.48c-0.13-0.57,0.14-1.36,0.47-1.9
		c1.77-2.87,5.03-2.9,6.78-0.03c0.63,1.03,0.96,2.24,1.37,3.39c0.23,0.65-0.05,1.03-0.78,1.02
		C278.08,120.58,277.08,120.59,276.09,120.59C276.09,120.59,276.09,120.59,276.09,120.59z"/>
	<path class="st1" d="M260.02,106.79c-0.12,0.09-0.31,0.31-0.56,0.43c-1.52,0.72-3.05,1.43-4.57,2.13
		c-0.54,0.25-0.96,0.16-1.19-0.44c-0.11-0.28-0.22-0.58-0.38-0.83c-0.64-1.02-0.26-1.61,0.76-2.03c1.06-0.44,2.09-0.95,3.13-1.42
		C258.68,103.94,260.16,104.97,260.02,106.79z"/>
</g>
</svg>
